<?xml version="1.0" encoding="utf-8"?>
<!-- Generator: Adobe Illustrator 21.0.2, SVG Export Plug-In . SVG Version: 6.00 Build 0)  -->
<svg version="1.1" id="Layer_1" xmlns="http://www.w3.org/2000/svg" xmlns:xlink="http://www.w3.org/1999/xlink" x="0px" y="0px"
	 viewBox="0 0 1013 400" style="enable-background:new 0 0 1013 400;" xml:space="preserve">
<style type="text/css">
	.st0{opacity:0.5;}
	.st1{fill:#226C82;}
	.st2{fill:#E55A61;}
	.st3{fill:#E2C85A;}
	.st4{fill:#5AE090;}
	.st5{fill:#E0E0E0;}
	.st6{fill:#F9F9F9;}
	.st7{fill:#6795A0;}
	.st8{fill:#31BBDB;}
	.st9{fill:#F2F2F2;}
	.st10{fill:#E8E8E8;}
</style>
<g class="st0">
	<path class="st1" d="M1007.9,0H7.1C3.7,0,1,2.7,1,6.1v728.8c0,3.4,2.7,6.1,6.1,6.1h1000.8c3.4,0,6.1-2.7,6.1-6.1V6.1
		C1014,2.7,1011.3,0,1007.9,0z"/>
</g>
<circle class="st2" cx="25.5" cy="24.5" r="6.5"/>
<circle class="st3" cx="45.5" cy="24.5" r="6.5"/>
<circle class="st4" cx="65.5" cy="24.5" r="6.5"/>
<polygon class="st5" points="1007,8 117.5,7.5 90,44 10,44 11,733 1007,733 "/>
<path class="st6" d="M978.1,13H125.9c-2.2,0-3.9,1.8-3.9,3.9v18.1c0,2.2,1.8,3.9,3.9,3.9h852.1c2.2,0,3.9-1.8,3.9-3.9V16.9
	C982,14.8,980.2,13,978.1,13z"/>
<rect x="10" y="44" class="st7" width="158" height="90"/>
<g>
	<rect x="168" y="44" class="st8" width="839" height="90"/>
</g>
<rect x="10" y="134" class="st9" width="158" height="588"/>
<path class="st10" d="M147.6,151H30.4c-2.9,0-5.4,2.4-5.4,5.4v10.3c0,2.9,2.4,5.4,5.4,5.4h117.3c2.9,0,5.4-2.4,5.4-5.4v-10.3
	C153,153.4,150.6,151,147.6,151z"/>
<path class="st10" d="M147.6,189H30.4c-2.9,0-5.4,2.4-5.4,5.4v10.3c0,2.9,2.4,5.4,5.4,5.4h117.3c2.9,0,5.4-2.4,5.4-5.4v-10.3
	C153,191.4,150.6,189,147.6,189z"/>
<path class="st10" d="M147.6,227H30.4c-2.9,0-5.4,2.4-5.4,5.4v10.3c0,2.9,2.4,5.4,5.4,5.4h117.3c2.9,0,5.4-2.4,5.4-5.4v-10.3
	C153,229.4,150.6,227,147.6,227z"/>
<path class="st10" d="M147.6,265H30.4c-2.9,0-5.4,2.4-5.4,5.4v10.3c0,2.9,2.4,5.4,5.4,5.4h117.3c2.9,0,5.4-2.4,5.4-5.4v-10.3
	C153,267.4,150.6,265,147.6,265z"/>
</svg>
