<?xml version="1.0" encoding="utf-8"?>
<!-- Generator: Adobe Illustrator 21.0.2, SVG Export Plug-In . SVG Version: 6.00 Build 0)  -->
<svg version="1.1" id="Layer_1" xmlns="http://www.w3.org/2000/svg" xmlns:xlink="http://www.w3.org/1999/xlink" x="0px" y="0px"
	 viewBox="0 0 1126 167" style="enable-background:new 0 0 1126 167;" xml:space="preserve">
<style type="text/css">
	.st0{clip-path:url(#SVGID_2_);}
	.st1{fill:#FFFFFF;}
	.st2{clip-path:url(#SVGID_4_);}
	.st3{opacity:0.38;}
	.st4{fill:#EFD330;}
	.st5{opacity:0.87;}
	.st6{opacity:0.87;enable-background:new    ;}
	.st7{opacity:0.54;enable-background:new    ;}
	.st8{fill:#58C2EF;}
	.st9{fill:none;stroke:#58C2EF;stroke-width:3;stroke-miterlimit:10;}
	.st10{fill:none;stroke:#BFBFBF;stroke-width:3;stroke-miterlimit:10;}
	.st11{fill:#BFBFBF;}
	.st12{fill:#E0344C;}
</style>
<image style="overflow:visible;opacity:0.28;enable-background:new    ;" width="1116" height="188" xlink:href="E4C7F8B9D72FA4D3.png"  transform="matrix(1 0 0 1 1 -8)">
</image>
<g id="Deal">
	<g>
		<defs>
			<path id="SVGID_1_" d="M1080.2,14H37.8C29.1,14,22,21.1,22,29.8v101.5c0,8.7,7.1,15.8,15.8,15.8h1042.5c8.7,0,15.8-7.1,15.8-15.8
				V29.8C1096,21.1,1088.9,14,1080.2,14z"/>
		</defs>
		<clipPath id="SVGID_2_">
			<use xlink:href="#SVGID_1_"  style="overflow:visible;"/>
		</clipPath>
		<g class="st0">
			<path class="st1" d="M1080.2,12H37.8C29.1,12,22,19.1,22,27.8v101.5c0,8.7,7.1,15.8,15.8,15.8h1042.5c8.7,0,15.8-7.1,15.8-15.8
				V27.8C1096,19.1,1088.9,12,1080.2,12z"/>
			<g>
				<g>
					<defs>
						<circle id="SVGID_3_" cx="96.5" cy="67.5" r="29.5"/>
					</defs>
					<clipPath id="SVGID_4_">
						<use xlink:href="#SVGID_3_"  style="overflow:visible;"/>
					</clipPath>
					<g class="st2">
						
							<image style="overflow:visible;enable-background:new;" width="862" height="862" xlink:href="E4C7F8B9D72FA4D1.jpeg"  transform="matrix(7.387953e-02 0 0 7.387953e-02 65.3536 35.9886)">
						</image>
					</g>
				</g>
				<g class="st3">
					<path d="M83.3,117.8c0,0.7-0.1,1.4-0.3,1.9c-0.2,0.6-0.4,1.1-0.8,1.4c-0.3,0.4-0.8,0.7-1.3,0.9s-1.1,0.3-1.7,0.3
						s-1.2-0.1-1.8-0.3c0-0.2,0-0.3,0-0.5s0-0.3,0-0.5c0-0.1,0-0.2,0.1-0.2c0.1-0.1,0.2-0.1,0.3-0.1c0.1,0,0.3,0,0.4,0.1
						c0.2,0.1,0.4,0.1,0.7,0.1c0.4,0,0.8-0.1,1.1-0.2s0.6-0.3,0.8-0.6c0.2-0.3,0.4-0.6,0.5-1s0.2-0.9,0.2-1.4v-8.5h1.7v8.6H83.3z"/>
					<path d="M89.6,113c0.7,0,1.3,0.1,1.8,0.3c0.5,0.2,1,0.5,1.4,0.9s0.7,0.9,0.9,1.5c0.2,0.6,0.3,1.2,0.3,1.9
						c0,0.7-0.1,1.4-0.3,1.9s-0.5,1.1-0.9,1.5s-0.8,0.7-1.4,0.9c-0.5,0.2-1.1,0.3-1.8,0.3c-0.7,0-1.3-0.1-1.8-0.3
						c-0.5-0.2-1-0.5-1.4-0.9s-0.7-0.9-0.9-1.5c-0.2-0.6-0.3-1.2-0.3-1.9c0-0.7,0.1-1.4,0.3-1.9c0.2-0.6,0.5-1.1,0.9-1.5
						s0.8-0.7,1.4-0.9C88.3,113.1,88.9,113,89.6,113z M89.6,121.1c0.9,0,1.6-0.3,2-0.9s0.7-1.4,0.7-2.5s-0.2-1.9-0.7-2.5
						c-0.4-0.6-1.1-0.9-2-0.9c-0.5,0-0.9,0.1-1.2,0.2c-0.3,0.2-0.6,0.4-0.8,0.7c-0.2,0.3-0.4,0.7-0.5,1.1s-0.2,0.9-0.2,1.5
						c0,1.1,0.2,1.9,0.7,2.5C88,120.8,88.7,121.1,89.6,121.1z"/>
					<path d="M95.7,114.4c0.5-0.5,1-0.8,1.6-1.1s1.2-0.4,1.9-0.4c0.5,0,1,0.1,1.4,0.3s0.7,0.4,1,0.7s0.5,0.7,0.6,1.1
						s0.2,0.9,0.2,1.4v5.8h-0.7c-0.2,0-0.3,0-0.4-0.1s-0.1-0.2-0.2-0.3L101,121c-0.2,0.2-0.5,0.4-0.7,0.6s-0.5,0.3-0.7,0.4
						c-0.3,0.1-0.5,0.2-0.8,0.3c-0.3,0.1-0.6,0.1-0.9,0.1c-0.4,0-0.7,0-1-0.1s-0.6-0.2-0.8-0.4s-0.4-0.4-0.5-0.8
						c-0.1-0.3-0.2-0.7-0.2-1.1s0.1-0.7,0.3-1c0.2-0.3,0.5-0.6,1-0.9c0.4-0.3,1-0.5,1.7-0.6c0.7-0.2,1.6-0.3,2.6-0.3v-0.7
						c0-0.7-0.2-1.2-0.5-1.6s-0.8-0.5-1.3-0.5c-0.4,0-0.7,0-1,0.1s-0.5,0.2-0.7,0.3c-0.2,0.1-0.4,0.2-0.5,0.3
						c-0.1,0.1-0.3,0.1-0.4,0.1s-0.2,0-0.3-0.1S96,115,96,115L95.7,114.4z M100.1,110.3c0.2,0,0.4-0.1,0.5-0.2s0.2-0.3,0.2-0.6h1
						c0,0.3,0,0.5-0.1,0.8c-0.1,0.2-0.2,0.4-0.3,0.6c-0.1,0.2-0.3,0.3-0.5,0.4s-0.4,0.1-0.7,0.1c-0.2,0-0.4,0-0.6-0.1
						s-0.4-0.2-0.5-0.3c-0.2-0.1-0.3-0.2-0.5-0.3s-0.3-0.1-0.4-0.1c-0.4,0-0.7,0.3-0.7,0.8h-1c0-0.3,0-0.5,0.1-0.8s0.2-0.4,0.3-0.6
						s0.3-0.3,0.5-0.4s0.4-0.1,0.6-0.1s0.4,0,0.6,0.1s0.4,0.2,0.5,0.3c0.2,0.1,0.3,0.2,0.5,0.3C99.8,110.3,99.9,110.3,100.1,110.3z
						 M100.9,118.2c-0.7,0-1.4,0.1-1.9,0.2s-0.9,0.2-1.3,0.4c-0.3,0.2-0.6,0.3-0.7,0.5s-0.2,0.4-0.2,0.7c0,0.2,0,0.4,0.1,0.6
						s0.2,0.3,0.3,0.4c0.1,0.1,0.3,0.2,0.5,0.2c0.2,0.1,0.4,0.1,0.6,0.1c0.3,0,0.5,0,0.8-0.1s0.5-0.1,0.7-0.2s0.4-0.2,0.6-0.4
						c0.2-0.1,0.4-0.3,0.6-0.5L100.9,118.2L100.9,118.2z"/>
					<path d="M108.7,113c0.7,0,1.3,0.1,1.8,0.3c0.5,0.2,1,0.5,1.4,0.9s0.7,0.9,0.9,1.5c0.2,0.6,0.3,1.2,0.3,1.9
						c0,0.7-0.1,1.4-0.3,1.9s-0.5,1.1-0.9,1.5s-0.8,0.7-1.4,0.9c-0.5,0.2-1.1,0.3-1.8,0.3c-0.7,0-1.3-0.1-1.8-0.3
						c-0.5-0.2-1-0.5-1.4-0.9s-0.7-0.9-0.9-1.5c-0.2-0.6-0.3-1.2-0.3-1.9c0-0.7,0.1-1.4,0.3-1.9c0.2-0.6,0.5-1.1,0.9-1.5
						s0.8-0.7,1.4-0.9C107.4,113.1,108.1,113,108.7,113z M108.7,121.1c0.9,0,1.6-0.3,2-0.9s0.7-1.4,0.7-2.5s-0.2-1.9-0.7-2.5
						c-0.4-0.6-1.1-0.9-2-0.9c-0.5,0-0.9,0.1-1.2,0.2c-0.3,0.2-0.6,0.4-0.8,0.7c-0.2,0.3-0.4,0.7-0.5,1.1s-0.2,0.9-0.2,1.5
						c0,1.1,0.2,1.9,0.7,2.5C107.1,120.8,107.8,121.1,108.7,121.1z"/>
				</g>
				<rect x="22" y="8" class="st4" width="15" height="146"/>
				<g class="st5">
					<path class="st6" d="M185.5,52.5v16h-1.9c-0.3,0-0.5,0-0.7-0.1s-0.4-0.3-0.6-0.5l-7.6-9.6c0,0.3,0,0.6,0.1,0.8
						c0,0.3,0,0.5,0,0.8v8.6h-3.3v-16h2c0.2,0,0.3,0,0.4,0s0.2,0,0.3,0.1c0.1,0,0.2,0.1,0.3,0.2s0.2,0.2,0.3,0.3l7.6,9.6
						c0-0.3-0.1-0.6-0.1-0.9c0-0.3,0-0.6,0-0.8v-8.5C182.3,52.5,185.5,52.5,185.5,52.5z"/>
					<path class="st6" d="M190.7,63.4c0.1,1,0.4,1.6,0.9,2.1c0.5,0.4,1.1,0.6,1.8,0.6c0.4,0,0.7,0,1-0.1s0.5-0.2,0.8-0.3
						c0.2-0.1,0.4-0.2,0.6-0.3c0.2-0.1,0.4-0.1,0.6-0.1c0.3,0,0.5,0.1,0.6,0.3l1,1.2c-0.4,0.4-0.7,0.7-1.1,1s-0.8,0.5-1.3,0.6
						c-0.4,0.1-0.9,0.2-1.3,0.3c-0.4,0.1-0.8,0.1-1.2,0.1c-0.8,0-1.5-0.1-2.2-0.4s-1.3-0.6-1.8-1.2s-0.9-1.2-1.2-1.9
						s-0.5-1.7-0.5-2.7c0-0.8,0.1-1.5,0.4-2.2c0.3-0.7,0.6-1.3,1.1-1.8s1.1-0.9,1.8-1.2s1.5-0.5,2.3-0.5s1.4,0.1,2.1,0.4
						s1.2,0.6,1.6,1s0.8,1,1.1,1.6s0.4,1.4,0.4,2.2c0,0.3,0,0.5,0,0.6c0,0.2-0.1,0.3-0.1,0.4c-0.1,0.1-0.1,0.2-0.2,0.2
						c-0.1,0-0.2,0.1-0.4,0.1C197.5,63.4,190.7,63.4,190.7,63.4z M195,61.4c0-0.3,0-0.5-0.1-0.8s-0.2-0.5-0.3-0.7
						c-0.2-0.2-0.4-0.4-0.6-0.5c-0.3-0.1-0.6-0.2-0.9-0.2c-0.6,0-1.2,0.2-1.5,0.6c-0.4,0.4-0.6,0.9-0.7,1.6
						C190.9,61.4,195,61.4,195,61.4z"/>
					<path class="st6" d="M210.1,57.4v1.2c0,0.2-0.1,0.3-0.2,0.5c-0.1,0.1-0.3,0.2-0.5,0.3l-0.8,0.2c0,0.2,0.1,0.3,0.1,0.5
						s0,0.3,0,0.5c0,0.6-0.1,1.1-0.4,1.5c-0.2,0.5-0.6,0.8-1,1.2c-0.4,0.3-0.9,0.6-1.5,0.7c-0.6,0.2-1.2,0.3-1.8,0.3
						c-0.2,0-0.3,0-0.5,0s-0.3,0-0.5-0.1c-0.2,0.2-0.4,0.3-0.4,0.5s0.1,0.3,0.3,0.4s0.5,0.1,0.8,0.2c0.3,0,0.7,0.1,1.1,0.1
						c0.4,0,0.9,0,1.3,0.1c0.4,0,0.9,0.1,1.3,0.2c0.4,0.1,0.8,0.3,1.1,0.5s0.6,0.5,0.8,0.9s0.3,0.8,0.3,1.4c0,0.5-0.1,1-0.4,1.5
						c-0.2,0.5-0.6,0.9-1.1,1.3s-1.1,0.7-1.8,0.9c-0.7,0.2-1.5,0.3-2.4,0.3s-1.7-0.1-2.3-0.3s-1.2-0.4-1.6-0.7c-0.4-0.3-0.7-0.6-1-1
						c-0.2-0.4-0.3-0.7-0.3-1.1c0-0.5,0.1-0.9,0.4-1.3s0.7-0.6,1.2-0.8c-0.3-0.2-0.5-0.4-0.7-0.6c-0.2-0.3-0.2-0.6-0.2-1
						c0-0.2,0-0.3,0.1-0.5s0.2-0.4,0.3-0.5c0.1-0.2,0.3-0.4,0.5-0.5c0.2-0.2,0.4-0.3,0.7-0.4c-0.6-0.3-1.1-0.7-1.4-1.2
						c-0.3-0.5-0.5-1.1-0.5-1.8c0-0.6,0.1-1.1,0.4-1.5c0.2-0.5,0.6-0.8,1-1.2c0.4-0.3,0.9-0.6,1.5-0.7c0.6-0.2,1.2-0.3,1.9-0.3
						c1,0,1.8,0.2,2.6,0.5h3.6V57.4z M206.8,68.9c0-0.3-0.1-0.5-0.4-0.6c-0.2-0.1-0.6-0.2-0.9-0.3c-0.4-0.1-0.8-0.1-1.3-0.1
						s-1,0-1.4-0.1c-0.2,0.1-0.4,0.3-0.5,0.5S202,68.8,202,69s0,0.3,0.1,0.4s0.2,0.2,0.4,0.3c0.2,0.1,0.4,0.2,0.7,0.2
						c0.3,0.1,0.7,0.1,1.1,0.1c0.5,0,0.9,0,1.2-0.1s0.6-0.1,0.8-0.2s0.3-0.2,0.4-0.4C206.7,69.2,206.8,69.1,206.8,68.9z M204.1,62.2
						c0.6,0,1-0.1,1.2-0.4s0.4-0.6,0.4-1.1s-0.1-0.8-0.4-1.1c-0.3-0.3-0.7-0.4-1.2-0.4c-0.6,0-1,0.1-1.2,0.4
						c-0.3,0.3-0.4,0.6-0.4,1.1c0,0.2,0,0.4,0.1,0.6c0.1,0.2,0.2,0.3,0.3,0.5c0.1,0.1,0.3,0.2,0.5,0.3
						C203.6,62.1,203.8,62.2,204.1,62.2z"/>
					<path class="st6" d="M216.6,56.9c0.9,0,1.7,0.1,2.4,0.4c0.7,0.3,1.3,0.7,1.8,1.2s0.9,1.1,1.2,1.8s0.4,1.5,0.4,2.4
						s-0.1,1.7-0.4,2.5s-0.7,1.3-1.2,1.9s-1.1,0.9-1.8,1.2c-0.7,0.3-1.5,0.4-2.4,0.4s-1.7-0.1-2.4-0.4s-1.3-0.7-1.8-1.2
						s-0.9-1.1-1.2-1.9s-0.4-1.5-0.4-2.5c0-0.9,0.1-1.7,0.4-2.4s0.7-1.3,1.2-1.8s1.1-0.9,1.8-1.2C214.9,57,215.7,56.9,216.6,56.9z
						 M216.6,66.1c0.8,0,1.4-0.3,1.7-0.8c0.4-0.6,0.6-1.4,0.6-2.5s-0.2-2-0.6-2.5c-0.4-0.5-0.9-0.8-1.7-0.8s-1.4,0.3-1.8,0.8
						s-0.6,1.4-0.6,2.5s0.2,2,0.6,2.5S215.8,66.1,216.6,66.1z"/>
					<path class="st6" d="M232.5,59.8c-0.1,0.1-0.2,0.2-0.3,0.3s-0.2,0.1-0.4,0.1s-0.3,0-0.5-0.1c-0.1-0.1-0.3-0.2-0.5-0.3
						s-0.4-0.2-0.6-0.3c-0.2-0.1-0.5-0.1-0.8-0.1c-0.4,0-0.8,0.1-1.1,0.2c-0.3,0.2-0.6,0.4-0.8,0.7s-0.3,0.6-0.4,1.1
						c-0.1,0.4-0.1,0.9-0.1,1.4c0,1.1,0.2,1.9,0.6,2.5s1,0.9,1.7,0.9c0.4,0,0.7,0,0.9-0.1s0.4-0.2,0.6-0.3s0.3-0.2,0.4-0.3
						c0.1-0.1,0.3-0.2,0.5-0.2c0.3,0,0.5,0.1,0.6,0.3l1,1.2c-0.4,0.4-0.7,0.7-1.1,1s-0.8,0.5-1.2,0.6s-0.8,0.2-1.2,0.3
						c-0.4,0.1-0.8,0.1-1.2,0.1c-0.7,0-1.4-0.1-2-0.4s-1.2-0.6-1.7-1.1s-0.9-1.1-1.1-1.9s-0.4-1.6-0.4-2.5c0-0.8,0.1-1.6,0.4-2.3
						c0.2-0.7,0.6-1.3,1.1-1.9c0.5-0.5,1.1-0.9,1.8-1.2s1.5-0.5,2.5-0.5c0.9,0,1.7,0.1,2.4,0.4c0.7,0.3,1.3,0.7,1.8,1.3L232.5,59.8z
						"/>
					<path class="st6" d="M238.7,54c0,0.3-0.1,0.5-0.2,0.8s-0.3,0.4-0.5,0.6s-0.4,0.3-0.7,0.4s-0.5,0.2-0.8,0.2s-0.5-0.1-0.8-0.2
						s-0.5-0.2-0.6-0.4s-0.3-0.4-0.4-0.6c-0.1-0.2-0.2-0.5-0.2-0.8s0.1-0.5,0.2-0.8c0.1-0.2,0.3-0.5,0.4-0.6
						c0.2-0.2,0.4-0.3,0.6-0.4s0.5-0.2,0.8-0.2s0.6,0.1,0.8,0.2s0.5,0.2,0.7,0.4s0.3,0.4,0.5,0.6S238.7,53.7,238.7,54z M238.3,57.1
						v11.4h-3.4V57.1H238.3z"/>
					<path class="st6" d="M240.4,58.7c0.7-0.6,1.5-1.1,2.3-1.4c0.8-0.3,1.7-0.4,2.7-0.4c0.7,0,1.3,0.1,1.9,0.3
						c0.6,0.2,1,0.5,1.4,0.9s0.7,0.9,0.9,1.4c0.2,0.6,0.3,1.2,0.3,1.8v7.1h-1.6c-0.3,0-0.6,0-0.7-0.1s-0.3-0.3-0.4-0.5l-0.2-0.6
						c-0.3,0.2-0.6,0.5-0.8,0.6c-0.3,0.2-0.5,0.3-0.8,0.5c-0.3,0.1-0.6,0.2-0.9,0.3c-0.3,0.1-0.7,0.1-1.1,0.1c-0.5,0-1-0.1-1.4-0.2
						s-0.8-0.3-1.1-0.6c-0.3-0.3-0.5-0.6-0.7-1s-0.2-0.8-0.2-1.4c0-0.4,0.1-0.8,0.3-1.2c0.2-0.4,0.6-0.8,1.1-1.2
						c0.5-0.3,1.2-0.6,2-0.9c0.9-0.2,1.9-0.4,3.2-0.4v-0.5c0-0.7-0.1-1.1-0.4-1.4c-0.3-0.3-0.7-0.4-1.2-0.4c-0.4,0-0.7,0-1,0.1
						s-0.5,0.2-0.7,0.3s-0.4,0.2-0.6,0.3c-0.2,0.1-0.4,0.1-0.7,0.1c-0.2,0-0.4-0.1-0.6-0.2c-0.2-0.1-0.3-0.3-0.4-0.4L240.4,58.7z
						 M246.6,63.8c-0.7,0-1.2,0.1-1.7,0.2c-0.5,0.1-0.8,0.2-1,0.3s-0.4,0.3-0.5,0.5s-0.1,0.4-0.1,0.5c0,0.4,0.1,0.7,0.3,0.8
						c0.2,0.2,0.5,0.2,0.9,0.2s0.8-0.1,1.2-0.2c0.3-0.2,0.7-0.4,1-0.7L246.6,63.8L246.6,63.8z"/>
					<path class="st6" d="M260.5,59.8c-0.1,0.1-0.2,0.2-0.3,0.3c-0.1,0.1-0.2,0.1-0.4,0.1c-0.2,0-0.3,0-0.5-0.1
						c-0.1-0.1-0.3-0.2-0.5-0.3s-0.4-0.2-0.6-0.3s-0.5-0.1-0.8-0.1c-0.4,0-0.8,0.1-1.1,0.2c-0.3,0.2-0.6,0.4-0.8,0.7
						s-0.3,0.6-0.4,1.1c-0.1,0.4-0.1,0.9-0.1,1.4c0,1.1,0.2,1.9,0.6,2.5s1,0.9,1.7,0.9c0.4,0,0.7,0,0.9-0.1s0.4-0.2,0.6-0.3
						s0.3-0.2,0.4-0.3c0.1-0.1,0.3-0.2,0.5-0.2c0.3,0,0.5,0.1,0.6,0.3l1,1.2c-0.4,0.4-0.7,0.7-1.1,1s-0.8,0.5-1.2,0.6
						c-0.4,0.1-0.8,0.2-1.2,0.3c-0.4,0.1-0.8,0.1-1.2,0.1c-0.7,0-1.4-0.1-2-0.4s-1.2-0.6-1.7-1.1s-0.9-1.1-1.1-1.9s-0.4-1.6-0.4-2.5
						c0-0.8,0.1-1.6,0.4-2.3c0.2-0.7,0.6-1.3,1.1-1.9c0.5-0.5,1.1-0.9,1.8-1.2s1.5-0.5,2.5-0.5c0.9,0,1.7,0.1,2.4,0.4
						c0.7,0.3,1.3,0.7,1.8,1.3L260.5,59.8z"/>
					<path class="st6" d="M262.5,58.7c0.7-0.6,1.5-1.1,2.3-1.4c0.8-0.3,1.7-0.4,2.7-0.4c0.7,0,1.3,0.1,1.9,0.3s1,0.5,1.4,0.9
						s0.7,0.9,0.9,1.4c0.2,0.6,0.3,1.2,0.3,1.8v7.1h-1.6c-0.3,0-0.6,0-0.7-0.1s-0.3-0.3-0.4-0.5l-0.2-0.6c-0.3,0.2-0.6,0.5-0.8,0.6
						c-0.3,0.2-0.5,0.3-0.8,0.5c-0.3,0.1-0.6,0.2-0.9,0.3c-0.3,0.1-0.7,0.1-1.1,0.1c-0.5,0-1-0.1-1.4-0.2s-0.8-0.3-1.1-0.6
						c-0.3-0.3-0.5-0.6-0.7-1s-0.2-0.8-0.2-1.4c0-0.4,0.1-0.8,0.3-1.2c0.2-0.4,0.6-0.8,1.1-1.2c0.5-0.3,1.2-0.6,2-0.9
						c0.9-0.2,1.9-0.4,3.2-0.4v-0.5c0-0.7-0.1-1.1-0.4-1.4c-0.3-0.3-0.7-0.4-1.2-0.4c-0.4,0-0.7,0-1,0.1s-0.5,0.2-0.7,0.3
						s-0.4,0.2-0.6,0.3s-0.4,0.1-0.7,0.1c-0.2,0-0.4-0.1-0.6-0.2c-0.2-0.1-0.3-0.3-0.4-0.4L262.5,58.7z M268.4,53.2
						c0.2,0,0.3,0,0.4-0.1s0.2-0.3,0.2-0.6h2.1c0,0.5-0.1,0.9-0.2,1.2s-0.3,0.7-0.5,0.9c-0.2,0.3-0.5,0.5-0.8,0.6s-0.6,0.2-1,0.2
						c-0.3,0-0.5,0-0.8-0.1c-0.2-0.1-0.5-0.2-0.7-0.3s-0.4-0.2-0.5-0.3s-0.3-0.1-0.4-0.1c-0.2,0-0.3,0-0.4,0.1s-0.2,0.3-0.2,0.6
						h-2.1c0-0.5,0.1-0.9,0.2-1.2c0.1-0.4,0.3-0.7,0.5-1s0.5-0.5,0.8-0.6s0.6-0.2,1-0.2c0.3,0,0.5,0,0.8,0.1
						c0.2,0.1,0.5,0.2,0.7,0.3s0.4,0.2,0.5,0.3C268.1,53.2,268.3,53.2,268.4,53.2z M268.7,63.8c-0.7,0-1.2,0.1-1.7,0.2
						c-0.5,0.1-0.8,0.2-1,0.3s-0.4,0.3-0.5,0.5s-0.1,0.4-0.1,0.5c0,0.4,0.1,0.7,0.3,0.8c0.2,0.2,0.5,0.2,0.9,0.2s0.8-0.1,1.2-0.2
						c0.3-0.2,0.7-0.4,1-0.7L268.7,63.8L268.7,63.8z"/>
					<path class="st6" d="M279.4,56.9c0.9,0,1.7,0.1,2.4,0.4c0.7,0.3,1.3,0.7,1.8,1.2s0.9,1.1,1.2,1.8s0.4,1.5,0.4,2.4
						s-0.1,1.7-0.4,2.5s-0.7,1.3-1.2,1.9s-1.1,0.9-1.8,1.2c-0.7,0.3-1.5,0.4-2.4,0.4s-1.7-0.1-2.4-0.4c-0.7-0.3-1.3-0.7-1.8-1.2
						s-0.9-1.1-1.2-1.9s-0.4-1.5-0.4-2.5c0-0.9,0.1-1.7,0.4-2.4s0.7-1.3,1.2-1.8s1.1-0.9,1.8-1.2C277.8,57,278.5,56.9,279.4,56.9z
						 M279.4,66.1c0.8,0,1.4-0.3,1.7-0.8c0.4-0.6,0.6-1.4,0.6-2.5s-0.2-2-0.6-2.5s-0.9-0.8-1.7-0.8c-0.8,0-1.4,0.3-1.8,0.8
						s-0.6,1.4-0.6,2.5s0.2,2,0.6,2.5S278.6,66.1,279.4,66.1z"/>
					<path class="st6" d="M302.4,52v16.5h-2.1c-0.4,0-0.7-0.2-0.8-0.6l-0.3-0.9c-0.2,0.2-0.5,0.5-0.7,0.7s-0.5,0.4-0.8,0.5
						s-0.6,0.3-0.9,0.3c-0.3,0.1-0.7,0.1-1.1,0.1c-0.6,0-1.1-0.1-1.6-0.4s-0.9-0.6-1.3-1.1s-0.7-1.1-0.9-1.8s-0.3-1.5-0.3-2.5
						c0-0.9,0.1-1.6,0.4-2.4c0.2-0.7,0.6-1.4,1-1.9s0.9-0.9,1.5-1.2s1.3-0.5,2-0.5c0.6,0,1.1,0.1,1.5,0.3s0.8,0.4,1.1,0.7V52H302.4z
						 M298.9,60.1c-0.3-0.3-0.5-0.5-0.8-0.6s-0.6-0.2-0.9-0.2s-0.6,0.1-0.9,0.2c-0.3,0.1-0.5,0.3-0.7,0.6s-0.3,0.6-0.5,1.1
						c-0.1,0.4-0.2,1-0.2,1.6s0,1.1,0.1,1.5s0.2,0.7,0.4,1s0.3,0.4,0.6,0.5c0.2,0.1,0.5,0.2,0.7,0.2s0.5,0,0.7-0.1
						c0.2,0,0.4-0.1,0.6-0.2s0.3-0.2,0.5-0.3s0.3-0.3,0.4-0.5L298.9,60.1L298.9,60.1z"/>
					<path class="st6" d="M307.5,63.4c0.1,1,0.4,1.6,0.9,2.1c0.5,0.4,1.1,0.6,1.8,0.6c0.4,0,0.7,0,1-0.1s0.5-0.2,0.8-0.3
						c0.2-0.1,0.4-0.2,0.6-0.3c0.2-0.1,0.4-0.1,0.6-0.1c0.3,0,0.5,0.1,0.6,0.3l1,1.2c-0.4,0.4-0.7,0.7-1.1,1s-0.8,0.5-1.3,0.6
						c-0.4,0.1-0.9,0.2-1.3,0.3c-0.4,0.1-0.8,0.1-1.2,0.1c-0.8,0-1.5-0.1-2.2-0.4s-1.3-0.6-1.8-1.2s-0.9-1.2-1.2-1.9
						s-0.5-1.7-0.5-2.7c0-0.8,0.1-1.5,0.4-2.2s0.6-1.3,1.1-1.8s1.1-0.9,1.8-1.2s1.5-0.5,2.3-0.5s1.4,0.1,2.1,0.4s1.2,0.6,1.6,1
						s0.8,1,1.1,1.6c0.3,0.6,0.4,1.4,0.4,2.2c0,0.3,0,0.5,0,0.6c0,0.2-0.1,0.3-0.1,0.4c-0.1,0.1-0.1,0.2-0.2,0.2s-0.2,0.1-0.4,0.1
						C314.3,63.4,307.5,63.4,307.5,63.4z M311.8,61.4c0-0.3,0-0.5-0.1-0.8s-0.2-0.5-0.3-0.7c-0.2-0.2-0.4-0.4-0.6-0.5
						c-0.3-0.1-0.6-0.2-0.9-0.2c-0.6,0-1.2,0.2-1.5,0.6c-0.4,0.4-0.6,0.9-0.7,1.6C307.7,61.4,311.8,61.4,311.8,61.4z"/>
					<path class="st6" d="M324.4,63.4c0.1,1,0.4,1.6,0.9,2.1c0.5,0.4,1.1,0.6,1.8,0.6c0.4,0,0.7,0,1-0.1s0.5-0.2,0.8-0.3
						c0.2-0.1,0.4-0.2,0.6-0.3c0.2-0.1,0.4-0.1,0.6-0.1c0.3,0,0.5,0.1,0.6,0.3l1,1.2c-0.4,0.4-0.7,0.7-1.1,1s-0.8,0.5-1.3,0.6
						c-0.4,0.1-0.9,0.2-1.3,0.3c-0.4,0.1-0.8,0.1-1.2,0.1c-0.8,0-1.5-0.1-2.2-0.4s-1.3-0.6-1.8-1.2s-0.9-1.2-1.2-1.9
						s-0.5-1.7-0.5-2.7c0-0.8,0.1-1.5,0.4-2.2s0.6-1.3,1.1-1.8s1.1-0.9,1.8-1.2s1.5-0.5,2.3-0.5s1.4,0.1,2.1,0.4s1.2,0.6,1.6,1
						s0.8,1,1.1,1.6c0.3,0.6,0.4,1.4,0.4,2.2c0,0.3,0,0.5,0,0.6c0,0.2-0.1,0.3-0.1,0.4c-0.1,0.1-0.1,0.2-0.2,0.2s-0.2,0.1-0.4,0.1
						C331.2,63.4,324.4,63.4,324.4,63.4z M328.7,61.4c0-0.3,0-0.5-0.1-0.8s-0.2-0.5-0.3-0.7c-0.2-0.2-0.4-0.4-0.6-0.5
						c-0.3-0.1-0.6-0.2-0.9-0.2c-0.6,0-1.2,0.2-1.5,0.6c-0.4,0.4-0.6,0.9-0.7,1.6C324.6,61.4,328.7,61.4,328.7,61.4z"/>
					<path class="st6" d="M344.2,68.5h-3.3c-0.2,0-0.4-0.1-0.6-0.2s-0.3-0.3-0.4-0.4l-2-3.5c0,0.1-0.1,0.2-0.1,0.4
						c-0.1,0.1-0.1,0.2-0.2,0.3l-1.7,2.8c-0.1,0.1-0.2,0.3-0.4,0.4c-0.1,0.1-0.3,0.2-0.5,0.2h-3l3.8-5.9l-3.7-5.5h3.3
						c0.2,0,0.4,0,0.5,0.1s0.2,0.2,0.3,0.3l2,3.4c0-0.1,0.1-0.3,0.2-0.4c0.1-0.1,0.1-0.3,0.2-0.4l1.5-2.5c0.1-0.2,0.2-0.3,0.3-0.4
						c0.1-0.1,0.3-0.1,0.4-0.1h3.1l-3.7,5.4L344.2,68.5z"/>
					<path class="st6" d="M347.5,63.4c0.1,1,0.4,1.6,0.9,2.1c0.5,0.4,1.1,0.6,1.8,0.6c0.4,0,0.7,0,1-0.1s0.5-0.2,0.8-0.3
						c0.2-0.1,0.4-0.2,0.6-0.3c0.2-0.1,0.4-0.1,0.6-0.1c0.3,0,0.5,0.1,0.6,0.3l1,1.2c-0.4,0.4-0.7,0.7-1.1,1s-0.8,0.5-1.3,0.6
						c-0.4,0.1-0.9,0.2-1.3,0.3c-0.4,0.1-0.8,0.1-1.2,0.1c-0.8,0-1.5-0.1-2.2-0.4s-1.3-0.6-1.8-1.2s-0.9-1.2-1.2-1.9
						s-0.5-1.7-0.5-2.7c0-0.8,0.1-1.5,0.4-2.2s0.6-1.3,1.1-1.8s1.1-0.9,1.8-1.2s1.5-0.5,2.3-0.5s1.4,0.1,2.1,0.4s1.2,0.6,1.6,1
						s0.8,1,1.1,1.6c0.3,0.6,0.4,1.4,0.4,2.2c0,0.3,0,0.5,0,0.6c0,0.2-0.1,0.3-0.1,0.4c-0.1,0.1-0.1,0.2-0.2,0.2s-0.2,0.1-0.4,0.1
						C354.3,63.4,347.5,63.4,347.5,63.4z M351.8,61.4c0-0.3,0-0.5-0.1-0.8s-0.2-0.5-0.3-0.7c-0.2-0.2-0.4-0.4-0.6-0.5
						c-0.3-0.1-0.6-0.2-0.9-0.2c-0.6,0-1.2,0.2-1.5,0.6c-0.4,0.4-0.6,0.9-0.7,1.6C347.7,61.4,351.8,61.4,351.8,61.4z"/>
					<path class="st6" d="M356.6,68.5V57.1h2.1c0.4,0,0.7,0.2,0.8,0.6l0.2,0.6c0.2-0.2,0.4-0.4,0.6-0.5c0.2-0.2,0.4-0.3,0.7-0.4
						s0.5-0.2,0.8-0.3s0.6-0.1,0.9-0.1c0.7,0,1.3,0.2,1.7,0.5c0.5,0.4,0.8,0.8,1,1.4c0.2-0.4,0.4-0.7,0.7-0.9
						c0.3-0.2,0.6-0.5,0.9-0.6c0.3-0.2,0.7-0.3,1-0.3c0.4-0.1,0.7-0.1,1.1-0.1c0.7,0,1.2,0.1,1.7,0.3s0.9,0.5,1.3,0.8
						c0.3,0.4,0.6,0.8,0.8,1.4c0.2,0.5,0.3,1.1,0.3,1.8v7.2h-3.4v-7.2c0-1.2-0.5-1.8-1.5-1.8c-0.5,0-0.8,0.2-1.1,0.5
						c-0.3,0.3-0.5,0.7-0.5,1.3v7.2h-3.4v-7.2c0-0.7-0.1-1.1-0.4-1.4c-0.3-0.3-0.6-0.4-1.1-0.4c-0.3,0-0.6,0.1-0.9,0.2
						c-0.3,0.1-0.5,0.3-0.8,0.6v8.3L356.6,68.5L356.6,68.5z"/>
					<path class="st6" d="M378.5,58.5c0.4-0.5,1-0.9,1.5-1.2s1.2-0.5,2-0.5c0.6,0,1.1,0.1,1.6,0.4s0.9,0.6,1.3,1.1s0.7,1.1,0.9,1.8
						s0.3,1.5,0.3,2.5c0,0.9-0.1,1.6-0.4,2.4c-0.2,0.7-0.6,1.4-1,1.9s-0.9,1-1.5,1.3s-1.3,0.5-2,0.5c-0.6,0-1.1-0.1-1.5-0.3
						s-0.8-0.4-1.1-0.7v4.4h-3.4v-15h2.1c0.4,0,0.7,0.2,0.8,0.6L378.5,58.5z M378.7,65.4c0.3,0.3,0.5,0.5,0.8,0.6s0.6,0.2,0.9,0.2
						s0.6-0.1,0.9-0.2s0.5-0.3,0.7-0.6c0.2-0.3,0.3-0.6,0.5-1.1c0.1-0.4,0.2-1,0.2-1.6s0-1.1-0.1-1.5s-0.2-0.7-0.4-1
						s-0.3-0.4-0.6-0.5s-0.5-0.2-0.7-0.2c-0.5,0-0.9,0.1-1.2,0.3c-0.3,0.2-0.6,0.5-0.9,0.8L378.7,65.4L378.7,65.4z"/>
					<path class="st6" d="M391.4,52v16.5H388V52H391.4z"/>
					<path class="st6" d="M398.9,56.9c0.9,0,1.7,0.1,2.4,0.4c0.7,0.3,1.3,0.7,1.8,1.2s0.9,1.1,1.2,1.8s0.4,1.5,0.4,2.4
						s-0.1,1.7-0.4,2.5s-0.7,1.3-1.2,1.9s-1.1,0.9-1.8,1.2c-0.7,0.3-1.5,0.4-2.4,0.4s-1.7-0.1-2.4-0.4c-0.7-0.3-1.3-0.7-1.8-1.2
						s-0.9-1.1-1.2-1.9s-0.4-1.5-0.4-2.5c0-0.9,0.1-1.7,0.4-2.4s0.7-1.3,1.2-1.8s1.1-0.9,1.8-1.2C397.3,57,398,56.9,398.9,56.9z
						 M398.9,66.1c0.8,0,1.4-0.3,1.7-0.8c0.4-0.6,0.6-1.4,0.6-2.5s-0.2-2-0.6-2.5s-0.9-0.8-1.7-0.8c-0.8,0-1.4,0.3-1.8,0.8
						s-0.6,1.4-0.6,2.5s0.2,2,0.6,2.5S398.1,66.1,398.9,66.1z"/>
				</g>
				<g class="st5">
					<path class="st7" d="M186.6,85.3c0,1.2-0.2,2.3-0.6,3.3c-0.4,1-0.9,1.8-1.6,2.5c-0.7,0.7-1.5,1.3-2.5,1.7c-1,0.4-2,0.6-3.2,0.6
						s-2.2-0.2-3.2-0.6s-1.8-0.9-2.5-1.7c-0.7-0.7-1.2-1.6-1.6-2.5c-0.4-1-0.6-2.1-0.6-3.3s0.2-2.3,0.6-3.3c0.4-1,0.9-1.8,1.6-2.6
						c0.7-0.7,1.5-1.3,2.5-1.7c1-0.4,2-0.6,3.2-0.6s2.2,0.2,3.2,0.6s1.8,1,2.5,1.7s1.2,1.6,1.6,2.6
						C186.4,83.1,186.6,84.2,186.6,85.3z M184.4,85.3c0-1-0.1-1.8-0.4-2.6c-0.3-0.8-0.6-1.4-1.1-2s-1.1-0.9-1.8-1.2
						s-1.5-0.4-2.3-0.4s-1.6,0.1-2.3,0.4s-1.3,0.7-1.8,1.2s-0.9,1.2-1.1,2c-0.3,0.8-0.4,1.6-0.4,2.6s0.1,1.8,0.4,2.6
						c0.3,0.8,0.6,1.4,1.1,1.9s1.1,0.9,1.8,1.2s1.5,0.4,2.3,0.4c0.9,0,1.6-0.1,2.3-0.4s1.3-0.7,1.8-1.2s0.9-1.2,1.1-1.9
						C184.3,87.2,184.4,86.3,184.4,85.3z"/>
					<path class="st7" d="M190.8,84.3c0.4-0.8,0.8-1.4,1.3-1.8s1.1-0.6,1.9-0.6c0.2,0,0.5,0,0.7,0.1s0.4,0.1,0.6,0.2l-0.1,1.5
						c0,0.2-0.2,0.3-0.3,0.3s-0.3,0-0.5-0.1c-0.2,0-0.4-0.1-0.7-0.1c-0.4,0-0.7,0.1-0.9,0.2c-0.3,0.1-0.5,0.3-0.7,0.5
						s-0.4,0.5-0.6,0.7s-0.3,0.6-0.5,1v7h-2V82.1h1.1c0.2,0,0.4,0,0.4,0.1c0.1,0.1,0.1,0.2,0.2,0.4L190.8,84.3z"/>
					<path class="st7" d="M206.1,82.5v0.7c0,0.2-0.2,0.4-0.5,0.5l-1.3,0.2c0.2,0.5,0.4,1,0.4,1.6c0,0.5-0.1,1-0.3,1.5
						c-0.2,0.4-0.5,0.8-0.9,1.1s-0.8,0.6-1.3,0.7c-0.5,0.2-1.1,0.3-1.7,0.3c-0.5,0-1-0.1-1.5-0.2c-0.2,0.1-0.4,0.3-0.5,0.5
						s-0.2,0.3-0.2,0.5c0,0.3,0.1,0.5,0.3,0.6s0.5,0.2,0.9,0.3s0.8,0.1,1.2,0.1c0.5,0,0.9,0,1.4,0.1c0.5,0,0.9,0.1,1.4,0.2
						s0.9,0.2,1.2,0.4c0.4,0.2,0.6,0.4,0.9,0.8c0.2,0.3,0.3,0.7,0.3,1.3c0,0.5-0.1,0.9-0.4,1.4s-0.6,0.8-1,1.2
						c-0.4,0.3-1,0.6-1.6,0.8c-0.6,0.2-1.4,0.3-2.2,0.3s-1.5-0.1-2.1-0.2c-0.6-0.2-1.1-0.4-1.5-0.6s-0.7-0.6-0.9-0.9
						s-0.3-0.7-0.3-1.1c0-0.6,0.2-1,0.5-1.4s0.8-0.7,1.4-0.9c-0.3-0.1-0.6-0.3-0.8-0.6c-0.2-0.2-0.3-0.6-0.3-1c0-0.2,0-0.3,0.1-0.5
						s0.1-0.3,0.3-0.5c0.1-0.2,0.3-0.3,0.4-0.5c0.2-0.2,0.4-0.3,0.6-0.4c-0.5-0.3-1-0.7-1.3-1.2s-0.5-1.1-0.5-1.8
						c0-0.5,0.1-1,0.3-1.5c0.2-0.4,0.5-0.8,0.9-1.1s0.8-0.6,1.3-0.7c0.5-0.2,1.1-0.3,1.7-0.3c0.5,0,0.9,0.1,1.4,0.2
						c0.4,0.1,0.8,0.3,1.1,0.5h3.1V82.5z M204.1,93.8c0-0.3-0.1-0.5-0.2-0.7c-0.2-0.2-0.4-0.3-0.6-0.4c-0.3-0.1-0.6-0.2-0.9-0.2
						s-0.7-0.1-1.1-0.1c-0.4,0-0.8,0-1.2-0.1c-0.4,0-0.8-0.1-1.1-0.1c-0.4,0.2-0.7,0.4-1,0.7c-0.3,0.3-0.4,0.6-0.4,1
						c0,0.2,0.1,0.5,0.2,0.7c0.1,0.2,0.3,0.4,0.6,0.6s0.6,0.3,1,0.4s0.9,0.1,1.4,0.1s1,0,1.4-0.1s0.8-0.2,1.1-0.4s0.5-0.4,0.7-0.6
						C204,94.4,204.1,94.1,204.1,93.8z M200.6,87.8c0.4,0,0.7-0.1,1-0.2s0.6-0.3,0.8-0.5s0.4-0.4,0.5-0.7c0.1-0.3,0.2-0.6,0.2-0.9
						c0-0.7-0.2-1.2-0.6-1.6c-0.4-0.4-1-0.6-1.8-0.6s-1.4,0.2-1.8,0.6c-0.4,0.4-0.6,0.9-0.6,1.6c0,0.3,0.1,0.6,0.2,0.9
						c0.1,0.3,0.3,0.5,0.5,0.7s0.5,0.4,0.8,0.5C199.8,87.7,200.2,87.8,200.6,87.8z"/>
					<path class="st7" d="M207.9,83.7c0.6-0.6,1.3-1,2-1.3s1.5-0.4,2.4-0.4c0.6,0,1.2,0.1,1.7,0.3c0.5,0.2,0.9,0.5,1.2,0.9
						s0.6,0.8,0.7,1.3c0.2,0.5,0.3,1.1,0.3,1.7v7.1h-0.9c-0.2,0-0.3,0-0.4-0.1c-0.1-0.1-0.2-0.2-0.2-0.4l-0.2-1.1
						c-0.3,0.3-0.6,0.5-0.9,0.7s-0.6,0.4-0.9,0.5s-0.6,0.3-1,0.3c-0.3,0.1-0.7,0.1-1.2,0.1c-0.4,0-0.8-0.1-1.2-0.2s-0.7-0.3-1-0.5
						s-0.5-0.5-0.7-0.9s-0.2-0.8-0.2-1.3c0-0.4,0.1-0.9,0.4-1.3c0.2-0.4,0.6-0.8,1.2-1.1c0.5-0.3,1.3-0.6,2.1-0.8
						c0.9-0.2,1.9-0.3,3.2-0.3V86c0-0.9-0.2-1.5-0.6-2s-0.9-0.7-1.6-0.7c-0.5,0-0.9,0.1-1.2,0.2s-0.6,0.3-0.8,0.4
						c-0.2,0.2-0.4,0.3-0.6,0.4s-0.3,0.2-0.5,0.2c-0.1,0-0.2,0-0.3-0.1s-0.2-0.2-0.2-0.3L207.9,83.7z M214.2,88.2
						c-0.9,0-1.7,0.1-2.3,0.2s-1.2,0.3-1.6,0.4c-0.4,0.2-0.7,0.4-0.9,0.6s-0.3,0.5-0.3,0.8s0,0.5,0.1,0.8c0.1,0.2,0.2,0.4,0.4,0.5
						s0.4,0.2,0.6,0.3c0.2,0.1,0.5,0.1,0.7,0.1c0.3,0,0.7,0,0.9-0.1c0.3-0.1,0.6-0.2,0.8-0.3c0.3-0.1,0.5-0.3,0.7-0.5
						s0.5-0.4,0.7-0.6v-2.2H214.2z"/>
					<path class="st7" d="M220.9,83.7c0.2-0.3,0.5-0.5,0.8-0.7s0.6-0.4,0.9-0.6c0.3-0.2,0.6-0.3,1-0.4c0.3-0.1,0.7-0.1,1.1-0.1
						c0.6,0,1.1,0.1,1.6,0.3c0.5,0.2,0.9,0.5,1.2,0.9s0.5,0.8,0.7,1.3s0.2,1.1,0.2,1.7v7.1h-2v-7.1c0-0.8-0.2-1.5-0.6-2
						c-0.4-0.5-1-0.7-1.8-0.7c-0.6,0-1.1,0.1-1.6,0.4s-1,0.7-1.4,1.1v8.2h-2v-11h1.2c0.3,0,0.5,0.1,0.5,0.4L220.9,83.7z"/>
					<path class="st7" d="M233.8,78.6c0,0.2,0,0.4-0.1,0.5c-0.1,0.2-0.2,0.3-0.3,0.4s-0.3,0.2-0.5,0.3c-0.2,0.1-0.4,0.1-0.5,0.1
						c-0.2,0-0.4,0-0.5-0.1c-0.2-0.1-0.3-0.2-0.4-0.3s-0.2-0.3-0.3-0.4s-0.1-0.3-0.1-0.5s0-0.4,0.1-0.5s0.2-0.3,0.3-0.5
						c0.1-0.1,0.3-0.2,0.4-0.3s0.3-0.1,0.5-0.1s0.4,0,0.5,0.1s0.3,0.2,0.5,0.3c0.1,0.1,0.2,0.3,0.3,0.5
						C233.8,78.2,233.8,78.4,233.8,78.6z M233.4,82.1v11.1h-2V82.1H233.4z"/>
					<path class="st7" d="M244.3,82.9c0,0.1,0,0.3-0.1,0.4c0,0.1-0.1,0.2-0.2,0.3l-6,8h6.1v1.5h-8.4v-0.8c0-0.1,0-0.2,0.1-0.3
						s0.1-0.3,0.2-0.4l6.1-8.1h-6V82h8.3v0.9H244.3z"/>
					<path class="st7" d="M246.3,83.7c0.6-0.6,1.3-1,2-1.3s1.5-0.4,2.4-0.4c0.6,0,1.2,0.1,1.7,0.3c0.5,0.2,0.9,0.5,1.2,0.9
						s0.6,0.8,0.7,1.3c0.2,0.5,0.3,1.1,0.3,1.7v7.1h-0.9c-0.2,0-0.3,0-0.4-0.1c-0.1-0.1-0.2-0.2-0.2-0.4l-0.2-1.1
						c-0.3,0.3-0.6,0.5-0.9,0.7s-0.6,0.4-0.9,0.5s-0.6,0.3-1,0.3c-0.3,0.1-0.7,0.1-1.2,0.1c-0.4,0-0.8-0.1-1.2-0.2s-0.7-0.3-1-0.5
						s-0.5-0.5-0.7-0.9s-0.2-0.8-0.2-1.3c0-0.4,0.1-0.9,0.4-1.3c0.2-0.4,0.6-0.8,1.2-1.1c0.5-0.3,1.3-0.6,2.1-0.8
						c0.9-0.2,1.9-0.3,3.2-0.3V86c0-0.9-0.2-1.5-0.6-2s-0.9-0.7-1.6-0.7c-0.5,0-0.9,0.1-1.2,0.2s-0.6,0.3-0.8,0.4
						c-0.2,0.2-0.4,0.3-0.6,0.4s-0.3,0.2-0.5,0.2c-0.1,0-0.2,0-0.3-0.1s-0.2-0.2-0.2-0.3L246.3,83.7z M252.6,88.2
						c-0.9,0-1.7,0.1-2.3,0.2s-1.2,0.3-1.6,0.4c-0.4,0.2-0.7,0.4-0.9,0.6s-0.3,0.5-0.3,0.8s0,0.5,0.1,0.8c0.1,0.2,0.2,0.4,0.4,0.5
						s0.4,0.2,0.6,0.3c0.2,0.1,0.5,0.1,0.7,0.1c0.3,0,0.7,0,0.9-0.1c0.3-0.1,0.6-0.2,0.8-0.3c0.3-0.1,0.5-0.3,0.7-0.5
						s0.5-0.4,0.7-0.6v-2.2H252.6z"/>
					<path class="st7" d="M265.9,91.7c-0.4,0.5-0.9,0.9-1.5,1.2c-0.6,0.3-1.3,0.4-1.9,0.5l-0.2,0.7c0.7,0.1,1.2,0.3,1.5,0.6
						c0.3,0.3,0.5,0.6,0.5,1c0,0.2-0.1,0.4-0.2,0.6s-0.3,0.4-0.5,0.5s-0.5,0.2-0.7,0.3c-0.3,0.1-0.6,0.1-1,0.1c-0.3,0-0.6,0-0.9-0.1
						s-0.5-0.1-0.7-0.2l0.2-0.6c0-0.1,0.1-0.2,0.3-0.2c0,0,0.1,0,0.2,0s0.1,0.1,0.2,0.1s0.2,0.1,0.3,0.1c0.1,0,0.3,0,0.4,0
						c0.3,0,0.5-0.1,0.7-0.2s0.2-0.3,0.2-0.5c0-0.3-0.2-0.5-0.5-0.6s-0.7-0.2-1.3-0.3l0.5-1.4c-0.6-0.1-1.2-0.2-1.8-0.5
						c-0.5-0.3-1-0.7-1.4-1.2s-0.7-1.1-0.9-1.7c-0.2-0.7-0.3-1.4-0.3-2.3c0-0.8,0.1-1.6,0.3-2.3s0.6-1.3,1-1.8s1-0.9,1.6-1.2
						c0.6-0.3,1.4-0.4,2.2-0.4c0.8,0,1.5,0.1,2.1,0.4s1.1,0.6,1.6,1.1l-0.5,0.7c-0.1,0.1-0.1,0.1-0.2,0.2c-0.1,0-0.1,0.1-0.2,0.1
						s-0.2,0-0.4-0.1c-0.1-0.1-0.3-0.2-0.5-0.3c-0.2-0.1-0.4-0.2-0.7-0.3s-0.6-0.1-1-0.1c-0.5,0-1,0.1-1.5,0.3
						c-0.4,0.2-0.8,0.5-1.1,0.8c-0.3,0.4-0.5,0.8-0.6,1.3s-0.2,1.1-0.2,1.7c0,0.7,0.1,1.3,0.2,1.8c0.2,0.5,0.4,1,0.7,1.3
						c0.3,0.4,0.6,0.6,1,0.8c0.4,0.2,0.8,0.3,1.3,0.3s0.9-0.1,1.2-0.2c0.3-0.1,0.6-0.2,0.8-0.4c0.2-0.1,0.4-0.3,0.5-0.4
						s0.3-0.2,0.4-0.2c0.2,0,0.3,0.1,0.4,0.2L265.9,91.7z"/>
					<path class="st7" d="M267.7,83.7c0.6-0.6,1.3-1,2-1.3s1.5-0.4,2.4-0.4c0.6,0,1.2,0.1,1.7,0.3c0.5,0.2,0.9,0.5,1.2,0.9
						s0.6,0.8,0.7,1.3c0.2,0.5,0.3,1.1,0.3,1.7v7.1h-0.9c-0.2,0-0.3,0-0.4-0.1s-0.2-0.2-0.2-0.4l-0.2-1.1c-0.3,0.3-0.6,0.5-0.9,0.7
						s-0.6,0.4-0.9,0.5s-0.6,0.3-1,0.3c-0.3,0.1-0.7,0.1-1.2,0.1c-0.4,0-0.8-0.1-1.2-0.2s-0.7-0.3-1-0.5s-0.5-0.5-0.7-0.9
						s-0.2-0.8-0.2-1.3c0-0.4,0.1-0.9,0.4-1.3c0.2-0.4,0.6-0.8,1.2-1.1c0.5-0.3,1.3-0.6,2.1-0.8c0.9-0.2,1.9-0.3,3.2-0.3V86
						c0-0.9-0.2-1.5-0.6-2s-0.9-0.7-1.6-0.7c-0.5,0-0.9,0.1-1.2,0.2c-0.3,0.1-0.6,0.3-0.8,0.4c-0.2,0.2-0.4,0.3-0.6,0.4
						s-0.3,0.2-0.5,0.2c-0.1,0-0.2,0-0.3-0.1s-0.2-0.2-0.2-0.3L267.7,83.7z M273.1,78.6c0.3,0,0.5-0.1,0.6-0.2
						c0.1-0.2,0.2-0.4,0.2-0.7h1.2c0,0.3,0,0.7-0.1,1s-0.2,0.5-0.4,0.7c-0.2,0.2-0.4,0.4-0.6,0.5s-0.5,0.2-0.8,0.2s-0.5-0.1-0.7-0.2
						s-0.4-0.2-0.6-0.3c-0.2-0.1-0.4-0.2-0.6-0.3c-0.2-0.1-0.3-0.2-0.5-0.2c-0.5,0-0.8,0.3-0.8,1h-1.2c0-0.4,0-0.7,0.1-1
						s0.2-0.5,0.4-0.7s0.4-0.4,0.6-0.5s0.5-0.2,0.8-0.2s0.5,0.1,0.7,0.2s0.4,0.2,0.6,0.3c0.2,0.1,0.4,0.2,0.6,0.3
						C272.7,78.6,272.9,78.6,273.1,78.6z M274.1,88.2c-0.9,0-1.7,0.1-2.3,0.2c-0.6,0.1-1.2,0.3-1.6,0.4c-0.4,0.2-0.7,0.4-0.9,0.6
						c-0.2,0.2-0.3,0.5-0.3,0.8s0,0.5,0.1,0.8c0.1,0.2,0.2,0.4,0.4,0.5s0.4,0.2,0.6,0.3c0.2,0.1,0.5,0.1,0.7,0.1
						c0.3,0,0.7,0,0.9-0.1c0.3-0.1,0.6-0.2,0.8-0.3c0.3-0.1,0.5-0.3,0.7-0.5s0.5-0.4,0.7-0.6v-2.2H274.1z"/>
					<path class="st7" d="M283.7,81.9c0.8,0,1.5,0.1,2.2,0.4s1.2,0.7,1.7,1.2s0.8,1.1,1.1,1.8c0.2,0.7,0.4,1.5,0.4,2.4
						s-0.1,1.7-0.4,2.4c-0.2,0.7-0.6,1.3-1.1,1.8s-1,0.9-1.7,1.2c-0.7,0.3-1.4,0.4-2.2,0.4c-0.8,0-1.6-0.1-2.2-0.4
						c-0.7-0.3-1.2-0.7-1.7-1.2s-0.8-1.1-1.1-1.8s-0.4-1.5-0.4-2.4s0.1-1.7,0.4-2.4c0.2-0.7,0.6-1.3,1.1-1.8s1-0.9,1.7-1.2
						C282.1,82,282.8,81.9,283.7,81.9z M283.7,91.8c1.1,0,1.9-0.4,2.5-1.1s0.8-1.8,0.8-3.1c0-1.3-0.3-2.4-0.8-3.1s-1.4-1.1-2.5-1.1
						c-0.6,0-1,0.1-1.5,0.3c-0.4,0.2-0.8,0.5-1,0.8c-0.3,0.4-0.5,0.8-0.6,1.3s-0.2,1.1-0.2,1.8c0,1.3,0.3,2.3,0.8,3.1
						S282.5,91.8,283.7,91.8z"/>
					<path class="st7" d="M307.5,79.3h-5.1v14h-2.1v-14h-5.1v-1.8h12.3L307.5,79.3L307.5,79.3z"/>
					<path class="st7" d="M306.6,83.7c0.6-0.6,1.3-1,2-1.3s1.5-0.4,2.4-0.4c0.6,0,1.2,0.1,1.7,0.3c0.5,0.2,0.9,0.5,1.2,0.9
						s0.6,0.8,0.7,1.3c0.2,0.5,0.3,1.1,0.3,1.7v7.1H314c-0.2,0-0.3,0-0.4-0.1s-0.2-0.2-0.2-0.4l-0.2-1.1c-0.3,0.3-0.6,0.5-0.9,0.7
						s-0.6,0.4-0.9,0.5s-0.6,0.3-1,0.3c-0.3,0.1-0.7,0.1-1.2,0.1c-0.4,0-0.8-0.1-1.2-0.2s-0.7-0.3-1-0.5s-0.5-0.5-0.7-0.9
						s-0.2-0.8-0.2-1.3c0-0.4,0.1-0.9,0.4-1.3c0.2-0.4,0.6-0.8,1.2-1.1c0.5-0.3,1.3-0.6,2.1-0.8c0.9-0.2,1.9-0.3,3.2-0.3V86
						c0-0.9-0.2-1.5-0.6-2s-0.9-0.7-1.6-0.7c-0.5,0-0.9,0.1-1.2,0.2c-0.3,0.1-0.6,0.3-0.8,0.4c-0.2,0.2-0.4,0.3-0.6,0.4
						s-0.3,0.2-0.5,0.2c-0.1,0-0.2,0-0.3-0.1s-0.2-0.2-0.2-0.3L306.6,83.7z M312.9,88.2c-0.9,0-1.7,0.1-2.3,0.2
						c-0.6,0.1-1.2,0.3-1.6,0.4c-0.4,0.2-0.7,0.4-0.9,0.6c-0.2,0.2-0.3,0.5-0.3,0.8s0,0.5,0.1,0.8c0.1,0.2,0.2,0.4,0.4,0.5
						s0.4,0.2,0.6,0.3c0.2,0.1,0.5,0.1,0.7,0.1c0.3,0,0.7,0,0.9-0.1c0.3-0.1,0.6-0.2,0.8-0.3c0.3-0.1,0.5-0.3,0.7-0.5
						s0.5-0.4,0.7-0.6v-2.2H312.9z"/>
					<path class="st7" d="M319.8,83.7c0.5-0.5,1-1,1.6-1.3s1.3-0.5,2-0.5s1.2,0.1,1.8,0.4c0.5,0.3,1,0.6,1.3,1.1s0.6,1,0.8,1.7
						c0.2,0.7,0.3,1.4,0.3,2.3s-0.1,1.7-0.3,2.5c-0.2,0.7-0.5,1.4-1,1.9c-0.4,0.5-0.9,0.9-1.5,1.2c-0.6,0.3-1.3,0.4-2,0.4
						s-1.4-0.1-1.9-0.4s-0.9-0.7-1.3-1.2l-0.1,1c-0.1,0.3-0.2,0.4-0.5,0.4h-1.3V77h2v6.7H319.8z M319.8,90.5c0.4,0.5,0.8,0.8,1.2,1
						c0.4,0.2,0.9,0.3,1.4,0.3c1,0,1.9-0.4,2.4-1.1c0.6-0.7,0.8-1.8,0.8-3.3c0-1.4-0.2-2.4-0.7-3s-1.2-1-2.1-1
						c-0.6,0-1.2,0.1-1.7,0.4s-0.9,0.7-1.3,1.2L319.8,90.5L319.8,90.5z"/>
					<path class="st7" d="M329.9,83.7c0.6-0.6,1.3-1,2-1.3s1.5-0.4,2.4-0.4c0.6,0,1.2,0.1,1.7,0.3c0.5,0.2,0.9,0.5,1.2,0.9
						s0.6,0.8,0.7,1.3c0.2,0.5,0.3,1.1,0.3,1.7v7.1h-0.9c-0.2,0-0.3,0-0.4-0.1s-0.2-0.2-0.2-0.4l-0.2-1.1c-0.3,0.3-0.6,0.5-0.9,0.7
						s-0.6,0.4-0.9,0.5s-0.6,0.3-1,0.3c-0.3,0.1-0.7,0.1-1.2,0.1c-0.4,0-0.8-0.1-1.2-0.2s-0.7-0.3-1-0.5s-0.5-0.5-0.7-0.9
						s-0.2-0.8-0.2-1.3c0-0.4,0.1-0.9,0.4-1.3c0.2-0.4,0.6-0.8,1.2-1.1c0.5-0.3,1.3-0.6,2.1-0.8c0.9-0.2,1.9-0.3,3.2-0.3V86
						c0-0.9-0.2-1.5-0.6-2s-0.9-0.7-1.6-0.7c-0.5,0-0.9,0.1-1.2,0.2c-0.3,0.1-0.6,0.3-0.8,0.4c-0.2,0.2-0.4,0.3-0.6,0.4
						s-0.3,0.2-0.5,0.2c-0.1,0-0.2,0-0.3-0.1s-0.2-0.2-0.2-0.3L329.9,83.7z M336.2,88.2c-0.9,0-1.7,0.1-2.3,0.2
						c-0.6,0.1-1.2,0.3-1.6,0.4c-0.4,0.2-0.7,0.4-0.9,0.6c-0.2,0.2-0.3,0.5-0.3,0.8s0,0.5,0.1,0.8c0.1,0.2,0.2,0.4,0.4,0.5
						s0.4,0.2,0.6,0.3c0.2,0.1,0.5,0.1,0.7,0.1c0.3,0,0.7,0,0.9-0.1c0.3-0.1,0.6-0.2,0.8-0.3c0.3-0.1,0.5-0.3,0.7-0.5
						s0.5-0.4,0.7-0.6v-2.2H336.2z"/>
					<path class="st7" d="M343.1,82.1v12c0,0.4-0.1,0.9-0.2,1.2c-0.1,0.4-0.3,0.7-0.6,1s-0.6,0.5-1,0.7s-0.9,0.2-1.4,0.2
						c-0.2,0-0.5,0-0.6-0.1c-0.2,0-0.4-0.1-0.6-0.2l0.1-1.1c0-0.1,0-0.1,0.1-0.1l0.1-0.1c0.1,0,0.1,0,0.2,0s0.2,0,0.3,0
						c0.6,0,1-0.1,1.2-0.4s0.4-0.7,0.4-1.3v-12h2V82.1z M343.5,78.6c0,0.2,0,0.4-0.1,0.5c-0.1,0.2-0.2,0.3-0.3,0.4s-0.3,0.2-0.4,0.3
						c-0.2,0.1-0.3,0.1-0.5,0.1s-0.4,0-0.5-0.1c-0.2-0.1-0.3-0.2-0.4-0.3s-0.2-0.3-0.3-0.4s-0.1-0.3-0.1-0.5s0-0.4,0.1-0.5
						s0.2-0.3,0.3-0.5c0.1-0.1,0.3-0.2,0.4-0.3s0.3-0.1,0.5-0.1s0.4,0,0.5,0.1c0.2,0.1,0.3,0.2,0.4,0.3c0.1,0.1,0.2,0.3,0.3,0.5
						C343.5,78.2,343.5,78.4,343.5,78.6z"/>
					<path class="st7" d="M346.1,83.7c0.6-0.6,1.3-1,2-1.3s1.5-0.4,2.4-0.4c0.6,0,1.2,0.1,1.7,0.3c0.5,0.2,0.9,0.5,1.2,0.9
						s0.6,0.8,0.7,1.3c0.2,0.5,0.3,1.1,0.3,1.7v7.1h-0.9c-0.2,0-0.3,0-0.4-0.1s-0.2-0.2-0.2-0.4l-0.2-1.1c-0.3,0.3-0.6,0.5-0.9,0.7
						s-0.6,0.4-0.9,0.5s-0.6,0.3-1,0.3c-0.3,0.1-0.7,0.1-1.2,0.1c-0.4,0-0.8-0.1-1.2-0.2s-0.7-0.3-1-0.5s-0.5-0.5-0.7-0.9
						s-0.2-0.8-0.2-1.3c0-0.4,0.1-0.9,0.4-1.3c0.2-0.4,0.6-0.8,1.2-1.1c0.5-0.3,1.3-0.6,2.1-0.8c0.9-0.2,1.9-0.3,3.2-0.3V86
						c0-0.9-0.2-1.5-0.6-2s-0.9-0.7-1.6-0.7c-0.5,0-0.9,0.1-1.2,0.2c-0.3,0.1-0.6,0.3-0.8,0.4c-0.2,0.2-0.4,0.3-0.6,0.4
						s-0.3,0.2-0.5,0.2c-0.1,0-0.2,0-0.3-0.1s-0.2-0.2-0.2-0.3L346.1,83.7z M352.4,88.2c-0.9,0-1.7,0.1-2.3,0.2
						c-0.6,0.1-1.2,0.3-1.6,0.4c-0.4,0.2-0.7,0.4-0.9,0.6c-0.2,0.2-0.3,0.5-0.3,0.8s0,0.5,0.1,0.8c0.1,0.2,0.2,0.4,0.4,0.5
						s0.4,0.2,0.6,0.3c0.2,0.1,0.5,0.1,0.7,0.1c0.3,0,0.7,0,0.9-0.1c0.3-0.1,0.6-0.2,0.8-0.3c0.3-0.1,0.5-0.3,0.7-0.5
						s0.5-0.4,0.7-0.6v-2.2H352.4z"/>
					<path class="st7" d="M359.1,84.3c0.4-0.8,0.8-1.4,1.3-1.8s1.1-0.6,1.9-0.6c0.2,0,0.5,0,0.7,0.1s0.4,0.1,0.6,0.2l-0.1,1.5
						c0,0.2-0.2,0.3-0.3,0.3c-0.1,0-0.3,0-0.5-0.1c-0.2,0-0.4-0.1-0.7-0.1c-0.4,0-0.7,0.1-0.9,0.2c-0.3,0.1-0.5,0.3-0.7,0.5
						s-0.4,0.5-0.6,0.7s-0.3,0.6-0.5,1v7h-2V82.1h1.1c0.2,0,0.4,0,0.4,0.1c0.1,0.1,0.1,0.2,0.2,0.4L359.1,84.3z"/>
					<path class="st7" d="M364.8,83.7c0.6-0.6,1.3-1,2-1.3s1.5-0.4,2.4-0.4c0.6,0,1.2,0.1,1.7,0.3c0.5,0.2,0.9,0.5,1.2,0.9
						s0.6,0.8,0.7,1.3c0.2,0.5,0.3,1.1,0.3,1.7v7.1h-0.9c-0.2,0-0.3,0-0.4-0.1s-0.2-0.2-0.2-0.4l-0.2-1.1c-0.3,0.3-0.6,0.5-0.9,0.7
						s-0.6,0.4-0.9,0.5s-0.6,0.3-1,0.3c-0.3,0.1-0.7,0.1-1.2,0.1c-0.4,0-0.8-0.1-1.2-0.2s-0.7-0.3-1-0.5s-0.5-0.5-0.7-0.9
						s-0.2-0.8-0.2-1.3c0-0.4,0.1-0.9,0.4-1.3c0.2-0.4,0.6-0.8,1.2-1.1c0.5-0.3,1.3-0.6,2.1-0.8c0.9-0.2,1.9-0.3,3.2-0.3V86
						c0-0.9-0.2-1.5-0.6-2s-0.9-0.7-1.6-0.7c-0.5,0-0.9,0.1-1.2,0.2c-0.3,0.1-0.6,0.3-0.8,0.4c-0.2,0.2-0.4,0.3-0.6,0.4
						s-0.3,0.2-0.5,0.2c-0.1,0-0.2,0-0.3-0.1s-0.2-0.2-0.2-0.3L364.8,83.7z M371.2,88.2c-0.9,0-1.7,0.1-2.3,0.2
						c-0.6,0.1-1.2,0.3-1.6,0.4c-0.4,0.2-0.7,0.4-0.9,0.6c-0.2,0.2-0.3,0.5-0.3,0.8s0,0.5,0.1,0.8c0.1,0.2,0.2,0.4,0.4,0.5
						s0.4,0.2,0.6,0.3c0.2,0.1,0.5,0.1,0.7,0.1c0.3,0,0.7,0,0.9-0.1c0.3-0.1,0.6-0.2,0.8-0.3c0.3-0.1,0.5-0.3,0.7-0.5
						s0.5-0.4,0.7-0.6v-2.2H371.2z"/>
				</g>
				<circle class="st8" cx="677.5" cy="76.5" r="9.5"/>
				<line class="st9" x1="677" y1="76" x2="737.5" y2="76"/>
				<line class="st10" x1="737" y1="76" x2="784.5" y2="76.5"/>
				<circle class="st4" cx="737.5" cy="76.5" r="9.5"/>
				<circle class="st11" cx="794.5" cy="76.5" r="9.5"/>
				<g>
					<path d="M941,65.5v1.3h-6.5V55.3h1.5v10.2H941z"/>
					<path d="M944.2,56.2c0,0.1,0,0.3-0.1,0.4c-0.1,0.1-0.1,0.2-0.2,0.3c-0.1,0.1-0.2,0.2-0.3,0.2c-0.1,0.1-0.3,0.1-0.4,0.1
						s-0.3,0-0.4-0.1c-0.1-0.1-0.2-0.1-0.3-0.2c-0.1-0.1-0.2-0.2-0.2-0.3c-0.1-0.1-0.1-0.2-0.1-0.4c0-0.1,0-0.3,0.1-0.4
						c0.1-0.1,0.1-0.2,0.2-0.3c0.1-0.1,0.2-0.2,0.3-0.2c0.1-0.1,0.3-0.1,0.4-0.1s0.3,0,0.4,0.1c0.1,0.1,0.2,0.1,0.3,0.2
						c0.1,0.1,0.2,0.2,0.2,0.3C944.1,55.9,944.2,56,944.2,56.2z M943.8,58.7v8.1h-1.4v-8.1C942.4,58.7,943.8,58.7,943.8,58.7z"/>
					<path d="M953,59v0.5c0,0.2-0.1,0.3-0.3,0.3l-0.9,0.1c0.2,0.4,0.3,0.7,0.3,1.2c0,0.4-0.1,0.8-0.2,1.1c-0.2,0.3-0.4,0.6-0.6,0.8
						c-0.3,0.2-0.6,0.4-1,0.5s-0.8,0.2-1.2,0.2s-0.7,0-1.1-0.1c-0.2,0.1-0.3,0.2-0.4,0.3c-0.1,0.1-0.1,0.2-0.1,0.4s0.1,0.3,0.2,0.4
						s0.4,0.2,0.6,0.2s0.5,0.1,0.9,0.1s0.7,0,1,0.1s0.7,0.1,1,0.1c0.3,0.1,0.6,0.2,0.9,0.3c0.3,0.1,0.5,0.3,0.6,0.6s0.2,0.5,0.2,0.9
						c0,0.3-0.1,0.7-0.3,1s-0.4,0.6-0.7,0.9s-0.7,0.5-1.2,0.6c-0.5,0.2-1,0.2-1.6,0.2s-1.1-0.1-1.6-0.2c-0.4-0.1-0.8-0.3-1.1-0.5
						s-0.5-0.4-0.7-0.7s-0.2-0.5-0.2-0.8c0-0.4,0.1-0.7,0.4-1s0.6-0.5,1-0.7c-0.2-0.1-0.4-0.2-0.6-0.4s-0.2-0.4-0.2-0.7
						c0-0.1,0-0.2,0.1-0.4c0-0.1,0.1-0.3,0.2-0.4s0.2-0.2,0.3-0.4c0.1-0.1,0.3-0.2,0.4-0.3c-0.4-0.2-0.7-0.5-0.9-0.9
						s-0.3-0.8-0.3-1.3c0-0.4,0.1-0.8,0.2-1.1c0.2-0.3,0.4-0.6,0.6-0.8c0.3-0.2,0.6-0.4,1-0.5s0.8-0.2,1.2-0.2s0.7,0,1,0.1
						s0.6,0.2,0.8,0.3h2.3V59z M951.6,67.2c0-0.2-0.1-0.4-0.2-0.5c-0.1-0.1-0.3-0.2-0.5-0.3c-0.2-0.1-0.4-0.1-0.7-0.1
						s-0.5-0.1-0.8-0.1s-0.6,0-0.9,0c-0.3,0-0.6,0-0.8-0.1c-0.3,0.1-0.5,0.3-0.7,0.5s-0.3,0.5-0.3,0.7s0,0.4,0.1,0.5
						c0.1,0.2,0.2,0.3,0.4,0.4s0.4,0.2,0.7,0.3c0.3,0.1,0.6,0.1,1,0.1s0.7,0,1-0.1s0.6-0.2,0.8-0.3c0.2-0.1,0.4-0.3,0.5-0.5
						C951.5,67.6,951.6,67.5,951.6,67.2z M949,62.8c0.3,0,0.5,0,0.8-0.1s0.4-0.2,0.6-0.3s0.3-0.3,0.3-0.5c0.1-0.2,0.1-0.4,0.1-0.7
						c0-0.5-0.2-0.9-0.5-1.2s-0.7-0.4-1.3-0.4s-1,0.1-1.3,0.4c-0.3,0.3-0.5,0.7-0.5,1.2c0,0.2,0,0.5,0.1,0.7s0.2,0.4,0.3,0.5
						s0.3,0.3,0.6,0.3C948.5,62.8,948.7,62.8,949,62.8z"/>
					<path d="M954.3,59.8c0.4-0.4,0.9-0.8,1.4-1s1.1-0.3,1.7-0.3c0.5,0,0.9,0.1,1.2,0.2c0.4,0.1,0.6,0.4,0.9,0.6
						c0.2,0.3,0.4,0.6,0.5,1s0.2,0.8,0.2,1.2v5.2h-0.6c-0.1,0-0.2,0-0.3-0.1c-0.1,0-0.1-0.1-0.2-0.3l-0.2-0.8
						c-0.2,0.2-0.4,0.4-0.6,0.5c-0.2,0.2-0.4,0.3-0.6,0.4c-0.2,0.1-0.5,0.2-0.7,0.2c-0.3,0.1-0.5,0.1-0.8,0.1s-0.6,0-0.9-0.1
						s-0.5-0.2-0.7-0.4c-0.2-0.2-0.4-0.4-0.5-0.7c-0.1-0.3-0.2-0.6-0.2-1c0-0.3,0.1-0.6,0.3-0.9s0.5-0.6,0.9-0.8s0.9-0.4,1.5-0.6
						s1.4-0.2,2.3-0.3v-0.6c0-0.6-0.1-1.1-0.4-1.4c-0.3-0.3-0.7-0.5-1.2-0.5c-0.4,0-0.6,0-0.9,0.1s-0.4,0.2-0.6,0.3
						s-0.3,0.2-0.4,0.3c-0.1,0.1-0.2,0.1-0.4,0.1c-0.1,0-0.2,0-0.2-0.1c-0.1,0-0.1-0.1-0.2-0.2L954.3,59.8z M958.9,63.2
						c-0.7,0-1.2,0.1-1.7,0.2c-0.5,0.1-0.8,0.2-1.1,0.3s-0.5,0.3-0.6,0.5s-0.2,0.4-0.2,0.6s0,0.4,0.1,0.6s0.2,0.3,0.3,0.4
						s0.3,0.2,0.4,0.2c0.2,0,0.3,0.1,0.5,0.1c0.3,0,0.5,0,0.7-0.1s0.4-0.1,0.6-0.2s0.4-0.2,0.5-0.3c0.2-0.1,0.3-0.3,0.5-0.5V63.2z"
						/>
					<path d="M968.6,65.7c-0.3,0.4-0.7,0.7-1.1,0.9c-0.4,0.2-0.9,0.3-1.4,0.4l-0.1,0.5c0.5,0.1,0.9,0.2,1.1,0.4s0.3,0.4,0.3,0.7
						c0,0.2,0,0.3-0.1,0.5s-0.2,0.3-0.4,0.4s-0.3,0.2-0.5,0.2c-0.2,0.1-0.4,0.1-0.7,0.1c-0.2,0-0.4,0-0.6-0.1
						c-0.2,0-0.4-0.1-0.5-0.2l0.1-0.4c0-0.1,0.1-0.1,0.2-0.1h0.1c0,0,0.1,0,0.2,0.1c0.1,0,0.1,0,0.2,0.1c0.1,0,0.2,0,0.3,0
						c0.2,0,0.4,0,0.5-0.1s0.2-0.2,0.2-0.3c0-0.2-0.1-0.3-0.3-0.4s-0.5-0.2-0.9-0.2l0.3-1c-0.5,0-0.9-0.2-1.3-0.4
						c-0.4-0.2-0.7-0.5-1-0.8s-0.5-0.8-0.7-1.3s-0.2-1-0.2-1.7c0-0.6,0.1-1.2,0.3-1.7s0.4-1,0.7-1.3c0.3-0.4,0.7-0.7,1.2-0.9
						s1-0.3,1.6-0.3s1.1,0.1,1.5,0.3s0.8,0.4,1.2,0.8l-0.4,0.5c0,0.1-0.1,0.1-0.1,0.1s-0.1,0-0.2,0c-0.1,0-0.2,0-0.3-0.1
						s-0.2-0.1-0.4-0.2s-0.3-0.2-0.5-0.2c-0.2-0.1-0.5-0.1-0.8-0.1c-0.4,0-0.8,0.1-1.1,0.2c-0.3,0.1-0.6,0.3-0.8,0.6s-0.4,0.6-0.5,1
						s-0.2,0.8-0.2,1.3s0.1,0.9,0.2,1.3c0.1,0.4,0.3,0.7,0.5,1s0.5,0.5,0.7,0.6c0.3,0.1,0.6,0.2,1,0.2c0.3,0,0.6,0,0.9-0.1
						c0.2-0.1,0.4-0.2,0.6-0.3c0.1-0.1,0.3-0.2,0.4-0.3s0.2-0.1,0.3-0.1s0.2,0,0.3,0.1L968.6,65.7z"/>
					<path d="M969.9,59.8c0.4-0.4,0.9-0.8,1.4-1s1.1-0.3,1.7-0.3c0.5,0,0.9,0.1,1.2,0.2c0.4,0.1,0.6,0.4,0.9,0.6
						c0.2,0.3,0.4,0.6,0.5,1s0.2,0.8,0.2,1.2v5.2h-0.6c-0.1,0-0.2,0-0.3-0.1c-0.1,0-0.1-0.1-0.2-0.3l-0.2-0.8
						c-0.2,0.2-0.4,0.4-0.6,0.5c-0.2,0.2-0.4,0.3-0.6,0.4c-0.2,0.1-0.5,0.2-0.7,0.2c-0.3,0.1-0.5,0.1-0.8,0.1s-0.6,0-0.9-0.1
						s-0.5-0.2-0.7-0.4c-0.2-0.2-0.4-0.4-0.5-0.7c-0.1-0.3-0.2-0.6-0.2-1c0-0.3,0.1-0.6,0.3-0.9s0.5-0.6,0.9-0.8s0.9-0.4,1.5-0.6
						s1.4-0.2,2.3-0.3v-0.6c0-0.6-0.1-1.1-0.4-1.4c-0.3-0.3-0.7-0.5-1.2-0.5c-0.4,0-0.6,0-0.9,0.1s-0.4,0.2-0.6,0.3
						s-0.3,0.2-0.4,0.3c-0.1,0.1-0.2,0.1-0.4,0.1c-0.1,0-0.2,0-0.2-0.1c-0.1,0-0.1-0.1-0.2-0.2L969.9,59.8z M973.8,56.2
						c0.2,0,0.3-0.1,0.4-0.2c0.1-0.1,0.2-0.3,0.2-0.5h0.9c0,0.3,0,0.5-0.1,0.7s-0.2,0.4-0.3,0.5s-0.3,0.3-0.4,0.3
						c-0.2,0.1-0.4,0.1-0.6,0.1c-0.2,0-0.4,0-0.5-0.1c-0.2-0.1-0.3-0.2-0.5-0.3c-0.1-0.1-0.3-0.2-0.4-0.3s-0.3-0.1-0.4-0.1
						c-0.4,0-0.6,0.2-0.6,0.7h-0.9c0-0.3,0-0.5,0.1-0.7s0.2-0.4,0.3-0.5c0.1-0.2,0.3-0.3,0.5-0.4s0.4-0.1,0.6-0.1
						c0.2,0,0.4,0,0.5,0.1c0.2,0.1,0.3,0.2,0.5,0.3c0.1,0.1,0.3,0.2,0.4,0.3S973.6,56.2,973.8,56.2z M974.5,63.2
						c-0.7,0-1.2,0.1-1.7,0.2c-0.5,0.1-0.8,0.2-1.1,0.3s-0.5,0.3-0.6,0.5s-0.2,0.4-0.2,0.6s0,0.4,0.1,0.6s0.2,0.3,0.3,0.4
						s0.3,0.2,0.4,0.2c0.2,0,0.3,0.1,0.5,0.1c0.3,0,0.5,0,0.7-0.1s0.4-0.1,0.6-0.2s0.4-0.2,0.5-0.3c0.2-0.1,0.3-0.3,0.5-0.5V63.2z"
						/>
					<path d="M981.5,58.6c0.6,0,1.1,0.1,1.6,0.3s0.9,0.5,1.2,0.8c0.3,0.4,0.6,0.8,0.8,1.3s0.3,1.1,0.3,1.7c0,0.6-0.1,1.2-0.3,1.7
						c-0.2,0.5-0.4,0.9-0.8,1.3c-0.3,0.4-0.7,0.6-1.2,0.8c-0.5,0.2-1,0.3-1.6,0.3s-1.1-0.1-1.6-0.3c-0.5-0.2-0.9-0.5-1.2-0.8
						c-0.3-0.4-0.6-0.8-0.8-1.3s-0.3-1.1-0.3-1.7c0-0.6,0.1-1.2,0.3-1.7s0.4-1,0.8-1.3c0.3-0.4,0.7-0.6,1.2-0.8
						C980.3,58.7,980.9,58.6,981.5,58.6z M981.5,65.8c0.8,0,1.4-0.3,1.8-0.8s0.6-1.3,0.6-2.2c0-1-0.2-1.7-0.6-2.3
						c-0.4-0.5-1-0.8-1.8-0.8c-0.4,0-0.8,0.1-1.1,0.2c-0.3,0.1-0.6,0.3-0.8,0.6s-0.3,0.6-0.4,1c-0.1,0.4-0.1,0.8-0.1,1.3
						c0,1,0.2,1.7,0.6,2.2S980.7,65.8,981.5,65.8z"/>
					<path d="M991,59.8c0.4-0.4,0.9-0.8,1.4-1s1.1-0.3,1.7-0.3c0.5,0,0.9,0.1,1.2,0.2c0.4,0.1,0.6,0.4,0.9,0.6
						c0.2,0.3,0.4,0.6,0.5,1s0.2,0.8,0.2,1.2v5.2h-0.6c-0.1,0-0.2,0-0.3-0.1c-0.1,0-0.1-0.1-0.2-0.3l-0.2-0.8
						c-0.2,0.2-0.4,0.4-0.6,0.5c-0.2,0.2-0.4,0.3-0.6,0.4c-0.2,0.1-0.5,0.2-0.7,0.2c-0.3,0.1-0.5,0.1-0.8,0.1s-0.6,0-0.9-0.1
						s-0.5-0.2-0.7-0.4c-0.2-0.2-0.4-0.4-0.5-0.7c-0.1-0.3-0.2-0.6-0.2-1c0-0.3,0.1-0.6,0.3-0.9s0.5-0.6,0.9-0.8s0.9-0.4,1.5-0.6
						s1.4-0.2,2.3-0.3v-0.6c0-0.6-0.1-1.1-0.4-1.4c-0.3-0.3-0.7-0.5-1.2-0.5c-0.4,0-0.6,0-0.9,0.1s-0.4,0.2-0.6,0.3
						s-0.3,0.2-0.4,0.3c-0.1,0.1-0.2,0.1-0.4,0.1c-0.1,0-0.2,0-0.2-0.1c-0.1,0-0.1-0.1-0.2-0.2L991,59.8z M995.6,63.2
						c-0.7,0-1.2,0.1-1.7,0.2c-0.5,0.1-0.8,0.2-1.1,0.3s-0.5,0.3-0.6,0.5s-0.2,0.4-0.2,0.6s0,0.4,0.1,0.6s0.2,0.3,0.3,0.4
						s0.3,0.2,0.4,0.2c0.2,0,0.3,0.1,0.5,0.1c0.3,0,0.5,0,0.7-0.1s0.4-0.1,0.6-0.2s0.4-0.2,0.5-0.3c0.2-0.1,0.3-0.3,0.5-0.5V63.2z"
						/>
					<path d="M1001.6,66.9c-0.6,0-1.1-0.2-1.5-0.5c-0.3-0.4-0.5-0.9-0.5-1.5v-5h-1c-0.1,0-0.2,0-0.2-0.1s-0.1-0.1-0.1-0.2V59
						l1.3-0.2l0.3-2.5c0-0.1,0.1-0.1,0.1-0.2c0.1-0.1,0.1-0.1,0.2-0.1h0.7v2.8h2.3v1h-2.3v4.9c0,0.3,0.1,0.6,0.2,0.8
						s0.4,0.2,0.6,0.2c0.1,0,0.3,0,0.4-0.1s0.2-0.1,0.3-0.1s0.1-0.1,0.2-0.1c0.1,0,0.1-0.1,0.1-0.1c0.1,0,0.1,0,0.2,0.1l0.4,0.7
						c-0.2,0.2-0.5,0.4-0.9,0.5C1002.3,66.9,1001.9,66.9,1001.6,66.9z"/>
					<path d="M1006.2,60.3c0.3-0.6,0.6-1,0.9-1.3c0.4-0.3,0.8-0.5,1.4-0.5c0.2,0,0.3,0,0.5,0.1c0.2,0,0.3,0.1,0.4,0.2l-0.1,1.1
						c0,0.1-0.1,0.2-0.2,0.2c-0.1,0-0.2,0-0.3,0s-0.3,0-0.5,0c-0.3,0-0.5,0-0.7,0.1s-0.4,0.2-0.5,0.3c-0.2,0.1-0.3,0.3-0.4,0.5
						c-0.1,0.2-0.2,0.5-0.3,0.7v5.1h-1.4v-8.1h0.8c0.2,0,0.3,0,0.3,0.1s0.1,0.2,0.1,0.3V60.3z"/>
					<path d="M1010.3,59.8c0.4-0.4,0.9-0.8,1.4-1s1.1-0.3,1.7-0.3c0.5,0,0.9,0.1,1.2,0.2c0.4,0.1,0.6,0.4,0.9,0.6
						c0.2,0.3,0.4,0.6,0.5,1s0.2,0.8,0.2,1.2v5.2h-0.6c-0.1,0-0.2,0-0.3-0.1c-0.1,0-0.1-0.1-0.2-0.3l-0.2-0.8
						c-0.2,0.2-0.4,0.4-0.6,0.5c-0.2,0.2-0.4,0.3-0.6,0.4c-0.2,0.1-0.5,0.2-0.7,0.2c-0.3,0.1-0.5,0.1-0.8,0.1s-0.6,0-0.9-0.1
						s-0.5-0.2-0.7-0.4c-0.2-0.2-0.4-0.4-0.5-0.7c-0.1-0.3-0.2-0.6-0.2-1c0-0.3,0.1-0.6,0.3-0.9s0.5-0.6,0.9-0.8s0.9-0.4,1.5-0.6
						s1.4-0.2,2.3-0.3v-0.6c0-0.6-0.1-1.1-0.4-1.4c-0.3-0.3-0.7-0.5-1.2-0.5c-0.4,0-0.6,0-0.9,0.1s-0.4,0.2-0.6,0.3
						s-0.3,0.2-0.4,0.3c-0.1,0.1-0.2,0.1-0.4,0.1c-0.1,0-0.2,0-0.2-0.1c-0.1,0-0.1-0.1-0.2-0.2L1010.3,59.8z M1014.9,63.2
						c-0.7,0-1.2,0.1-1.7,0.2c-0.5,0.1-0.8,0.2-1.1,0.3s-0.5,0.3-0.6,0.5s-0.2,0.4-0.2,0.6s0,0.4,0.1,0.6s0.2,0.3,0.3,0.4
						s0.3,0.2,0.4,0.2c0.2,0,0.3,0.1,0.5,0.1c0.3,0,0.5,0,0.7-0.1s0.4-0.1,0.6-0.2s0.4-0.2,0.5-0.3c0.2-0.1,0.3-0.3,0.5-0.5V63.2z"
						/>
					<path d="M1023.2,60c-0.1,0.1-0.2,0.2-0.3,0.2s-0.2,0-0.3-0.1s-0.2-0.1-0.4-0.2s-0.3-0.1-0.5-0.2c-0.2-0.1-0.4-0.1-0.7-0.1
						c-0.2,0-0.5,0-0.6,0.1c-0.2,0.1-0.4,0.1-0.5,0.3c-0.1,0.1-0.2,0.2-0.3,0.4c-0.1,0.1-0.1,0.3-0.1,0.5s0.1,0.4,0.2,0.5
						s0.3,0.3,0.5,0.4c0.2,0.1,0.4,0.2,0.7,0.3s0.5,0.2,0.8,0.2s0.5,0.2,0.8,0.3s0.5,0.2,0.7,0.4s0.4,0.4,0.5,0.6
						c0.1,0.2,0.2,0.5,0.2,0.8c0,0.4-0.1,0.7-0.2,1c-0.1,0.3-0.3,0.6-0.6,0.8c-0.3,0.2-0.6,0.4-1,0.5s-0.8,0.2-1.3,0.2
						c-0.6,0-1.1-0.1-1.5-0.3c-0.5-0.2-0.8-0.4-1.2-0.7l0.3-0.5c0-0.1,0.1-0.1,0.2-0.2c0.1,0,0.1-0.1,0.2-0.1c0.1,0,0.2,0,0.3,0.1
						s0.2,0.2,0.4,0.2c0.2,0.1,0.3,0.2,0.6,0.2c0.2,0.1,0.5,0.1,0.8,0.1s0.5,0,0.7-0.1s0.4-0.2,0.5-0.3s0.2-0.3,0.3-0.4
						c0.1-0.2,0.1-0.3,0.1-0.5s-0.1-0.4-0.2-0.6s-0.3-0.3-0.5-0.4c-0.2-0.1-0.4-0.2-0.7-0.3s-0.5-0.2-0.8-0.2
						c-0.3-0.1-0.5-0.2-0.8-0.3s-0.5-0.2-0.7-0.4s-0.4-0.4-0.5-0.6c-0.1-0.2-0.2-0.5-0.2-0.9c0-0.3,0.1-0.6,0.2-0.9
						c0.1-0.3,0.3-0.5,0.6-0.8c0.2-0.2,0.5-0.4,0.9-0.5s0.8-0.2,1.2-0.2c0.5,0,1,0.1,1.4,0.3s0.8,0.4,1.1,0.7L1023.2,60z"/>
					<path d="M1025.2,59.8c0.4-0.4,0.9-0.8,1.4-1s1.1-0.3,1.7-0.3c0.5,0,0.9,0.1,1.2,0.2c0.4,0.1,0.6,0.4,0.9,0.6
						c0.2,0.3,0.4,0.6,0.5,1s0.2,0.8,0.2,1.2v5.2h-0.6c-0.1,0-0.2,0-0.3-0.1c-0.1,0-0.1-0.1-0.2-0.3l-0.2-0.8
						c-0.2,0.2-0.4,0.4-0.6,0.5c-0.2,0.2-0.4,0.3-0.6,0.4s-0.5,0.2-0.7,0.2c-0.3,0.1-0.5,0.1-0.8,0.1s-0.6,0-0.9-0.1
						s-0.5-0.2-0.7-0.4c-0.2-0.2-0.4-0.4-0.5-0.7c-0.1-0.3-0.2-0.6-0.2-1c0-0.3,0.1-0.6,0.3-0.9s0.5-0.6,0.9-0.8s0.9-0.4,1.5-0.6
						s1.4-0.2,2.3-0.3v-0.6c0-0.6-0.1-1.1-0.4-1.4c-0.3-0.3-0.7-0.5-1.2-0.5c-0.4,0-0.6,0-0.9,0.1s-0.4,0.2-0.6,0.3
						s-0.3,0.2-0.4,0.3s-0.2,0.1-0.4,0.1c-0.1,0-0.2,0-0.2-0.1c-0.1,0-0.1-0.1-0.2-0.2L1025.2,59.8z M1029.8,63.2
						c-0.7,0-1.2,0.1-1.7,0.2c-0.5,0.1-0.8,0.2-1.1,0.3c-0.3,0.1-0.5,0.3-0.6,0.5s-0.2,0.4-0.2,0.6s0,0.4,0.1,0.6s0.2,0.3,0.3,0.4
						s0.3,0.2,0.4,0.2c0.2,0,0.3,0.1,0.5,0.1c0.3,0,0.5,0,0.7-0.1s0.4-0.1,0.6-0.2s0.4-0.2,0.5-0.3c0.2-0.1,0.3-0.3,0.5-0.5
						L1029.8,63.2L1029.8,63.2z"/>
					<path d="M1040,55v11.8h-0.8c-0.2,0-0.3-0.1-0.4-0.3l-0.1-1c-0.3,0.4-0.7,0.8-1.2,1c-0.4,0.3-1,0.4-1.5,0.4s-0.9-0.1-1.3-0.3
						c-0.4-0.2-0.7-0.4-1-0.8c-0.3-0.3-0.5-0.8-0.6-1.3s-0.2-1.1-0.2-1.8c0-0.6,0.1-1.2,0.2-1.7s0.4-1,0.7-1.3
						c0.3-0.4,0.7-0.7,1.1-0.9s0.9-0.3,1.5-0.3c0.5,0,0.9,0.1,1.3,0.3s0.7,0.4,0.9,0.7V55H1040z M1038.6,60.6
						c-0.3-0.4-0.6-0.6-0.9-0.7s-0.7-0.2-1-0.2c-0.8,0-1.3,0.3-1.7,0.8c-0.4,0.5-0.6,1.3-0.6,2.3c0,0.5,0,1,0.1,1.4s0.2,0.7,0.4,0.9
						c0.2,0.2,0.4,0.4,0.6,0.5s0.5,0.2,0.9,0.2c0.5,0,0.9-0.1,1.2-0.3c0.3-0.2,0.7-0.5,1-0.9V60.6z"/>
					<path d="M1042.1,59.8c0.4-0.4,0.9-0.8,1.4-1s1.1-0.3,1.7-0.3c0.5,0,0.9,0.1,1.2,0.2c0.4,0.1,0.6,0.4,0.9,0.6
						c0.2,0.3,0.4,0.6,0.5,1s0.2,0.8,0.2,1.2v5.2h-0.6c-0.1,0-0.2,0-0.3-0.1c-0.1,0-0.1-0.1-0.2-0.3l-0.2-0.8
						c-0.2,0.2-0.4,0.4-0.6,0.5c-0.2,0.2-0.4,0.3-0.6,0.4s-0.5,0.2-0.7,0.2c-0.3,0.1-0.5,0.1-0.8,0.1s-0.6,0-0.9-0.1
						s-0.5-0.2-0.7-0.4c-0.2-0.2-0.4-0.4-0.5-0.7c-0.1-0.3-0.2-0.6-0.2-1c0-0.3,0.1-0.6,0.3-0.9s0.5-0.6,0.9-0.8s0.9-0.4,1.5-0.6
						s1.4-0.2,2.3-0.3v-0.6c0-0.6-0.1-1.1-0.4-1.4c-0.3-0.3-0.7-0.5-1.2-0.5c-0.4,0-0.6,0-0.9,0.1s-0.4,0.2-0.6,0.3
						s-0.3,0.2-0.4,0.3s-0.2,0.1-0.4,0.1c-0.1,0-0.2,0-0.2-0.1c-0.1,0-0.1-0.1-0.2-0.2L1042.1,59.8z M1046.7,63.2
						c-0.7,0-1.2,0.1-1.7,0.2c-0.5,0.1-0.8,0.2-1.1,0.3c-0.3,0.1-0.5,0.3-0.6,0.5s-0.2,0.4-0.2,0.6s0,0.4,0.1,0.6s0.2,0.3,0.3,0.4
						s0.3,0.2,0.4,0.2c0.2,0,0.3,0.1,0.5,0.1c0.3,0,0.5,0,0.7-0.1s0.4-0.1,0.6-0.2s0.4-0.2,0.5-0.3c0.2-0.1,0.3-0.3,0.5-0.5
						L1046.7,63.2L1046.7,63.2z"/>
				</g>
				<g>
					<path class="st12" d="M945.1,83.1c0,0.9-0.1,1.6-0.4,2.4c-0.3,0.7-0.7,1.3-1.2,1.9s-1.1,0.9-1.8,1.2s-1.5,0.4-2.3,0.4
						s-1.6-0.1-2.3-0.4s-1.3-0.7-1.8-1.2s-0.9-1.1-1.2-1.9c-0.3-0.7-0.4-1.5-0.4-2.4s0.1-1.6,0.4-2.4c0.3-0.7,0.7-1.3,1.2-1.9
						c0.5-0.5,1.1-0.9,1.8-1.2s1.5-0.4,2.3-0.4s1.6,0.1,2.3,0.4s1.3,0.7,1.8,1.2s0.9,1.1,1.2,1.9C944.9,81.4,945.1,82.2,945.1,83.1z
						 M943.5,83.1c0-0.7-0.1-1.3-0.3-1.9s-0.5-1-0.8-1.4c-0.4-0.4-0.8-0.7-1.3-0.9s-1.1-0.3-1.7-0.3c-0.6,0-1.2,0.1-1.7,0.3
						c-0.5,0.2-0.9,0.5-1.3,0.9c-0.4,0.4-0.6,0.9-0.8,1.4s-0.3,1.2-0.3,1.9c0,0.7,0.1,1.3,0.3,1.9s0.5,1,0.8,1.4
						c0.4,0.4,0.8,0.7,1.3,0.9c0.5,0.2,1.1,0.3,1.7,0.3c0.6,0,1.2-0.1,1.7-0.3c0.5-0.2,0.9-0.5,1.3-0.9c0.4-0.4,0.6-0.9,0.8-1.4
						C943.4,84.4,943.5,83.8,943.5,83.1z"/>
					<path class="st12" d="M948.1,81.9c0.2-0.2,0.4-0.4,0.6-0.5s0.4-0.3,0.6-0.4c0.2-0.1,0.5-0.2,0.7-0.3c0.2-0.1,0.5-0.1,0.8-0.1
						c0.4,0,0.8,0.1,1.2,0.2s0.6,0.4,0.8,0.6c0.2,0.3,0.4,0.6,0.5,1s0.2,0.8,0.2,1.3v5.2h-1.4v-5.2c0-0.6-0.1-1.1-0.4-1.4
						c-0.3-0.3-0.7-0.5-1.3-0.5c-0.4,0-0.8,0.1-1.2,0.3c-0.4,0.2-0.7,0.5-1,0.8v6h-1.4v-8.1h0.9c0.2,0,0.3,0.1,0.4,0.3L948.1,81.9z"
						/>
					<path class="st12" d="M958.1,88.9c-0.6,0-1.1-0.2-1.5-0.5c-0.3-0.4-0.5-0.9-0.5-1.5v-5h-1c-0.1,0-0.2,0-0.2-0.1
						s-0.1-0.1-0.1-0.2V81l1.3-0.2l0.3-2.5c0-0.1,0.1-0.1,0.1-0.2c0.1-0.1,0.1-0.1,0.2-0.1h0.7v2.8h2.3v1h-2.3v4.9
						c0,0.3,0.1,0.6,0.2,0.8s0.4,0.2,0.6,0.2c0.1,0,0.3,0,0.4-0.1s0.2-0.1,0.3-0.1s0.1-0.1,0.2-0.1c0.1,0,0.1-0.1,0.1-0.1
						c0.1,0,0.1,0,0.2,0.1l0.4,0.7c-0.2,0.2-0.5,0.4-0.9,0.5C958.8,88.9,958.4,88.9,958.1,88.9z"/>
					<path class="st12" d="M967.9,87.7c-0.2,0.2-0.4,0.4-0.6,0.6c-0.2,0.2-0.5,0.3-0.8,0.4s-0.6,0.2-0.9,0.2S965,89,964.7,89
						c-0.6,0-1.1-0.1-1.5-0.3c-0.5-0.2-0.9-0.5-1.2-0.8s-0.6-0.8-0.8-1.4c-0.2-0.5-0.3-1.2-0.3-1.9c0-0.6,0.1-1.1,0.3-1.6
						s0.4-0.9,0.7-1.3s0.7-0.6,1.2-0.8c0.5-0.2,1-0.3,1.6-0.3c0.5,0,0.9,0.1,1.3,0.2c0.4,0.2,0.8,0.4,1.1,0.7
						c0.3,0.3,0.5,0.7,0.7,1.1c0.2,0.5,0.3,1,0.3,1.5c0,0.2,0,0.4-0.1,0.4c0,0.1-0.1,0.1-0.3,0.1h-5.4c0,0.5,0.1,1,0.2,1.3
						c0.1,0.4,0.3,0.7,0.5,0.9c0.2,0.3,0.5,0.4,0.8,0.6c0.3,0.1,0.7,0.2,1,0.2c0.4,0,0.7,0,0.9-0.1s0.5-0.2,0.7-0.3
						c0.2-0.1,0.3-0.2,0.5-0.3s0.2-0.1,0.3-0.1s0.2,0,0.3,0.1L967.9,87.7z M966.7,83.9c0-0.3,0-0.6-0.1-0.9s-0.2-0.5-0.4-0.7
						s-0.4-0.4-0.7-0.5s-0.5-0.2-0.9-0.2c-0.7,0-1.2,0.2-1.6,0.6c-0.4,0.4-0.6,0.9-0.7,1.7H966.7z"/>
					<path class="st12" d="M969.7,88.8v-8.1h0.9c0.2,0,0.3,0.1,0.4,0.3l0.1,0.8c0.3-0.4,0.6-0.7,1-0.9c0.4-0.2,0.8-0.4,1.3-0.4
						s1,0.2,1.3,0.5s0.6,0.7,0.7,1.2c0.1-0.3,0.3-0.5,0.5-0.8c0.2-0.2,0.4-0.4,0.6-0.5c0.2-0.1,0.5-0.2,0.7-0.3
						c0.3-0.1,0.5-0.1,0.8-0.1c0.4,0,0.8,0.1,1.1,0.2s0.6,0.3,0.8,0.6c0.2,0.3,0.4,0.6,0.5,1s0.2,0.8,0.2,1.3v5.2h-1.4v-5.2
						c0-0.6-0.1-1.1-0.4-1.4c-0.3-0.3-0.7-0.5-1.2-0.5c-0.2,0-0.5,0-0.7,0.1s-0.4,0.2-0.6,0.4c-0.2,0.2-0.3,0.4-0.4,0.6
						c-0.1,0.2-0.1,0.5-0.1,0.8v5.2h-1.4v-5.2c0-0.7-0.1-1.1-0.4-1.5c-0.3-0.3-0.6-0.5-1.1-0.5c-0.4,0-0.7,0.1-1,0.3
						c-0.3,0.2-0.6,0.4-0.8,0.8v6L969.7,88.8L969.7,88.8z"/>
					<path class="st12" d="M982.8,90.7L982.8,90.7l-0.1-0.2v-0.1l0.1-0.1c0.1-0.1,0.1-0.1,0.2-0.2c0.1-0.1,0.2-0.2,0.3-0.3
						s0.2-0.3,0.2-0.4c0.1-0.2,0.1-0.3,0.2-0.5c0,0,0,0-0.1,0s0,0-0.1,0c-0.3,0-0.5-0.1-0.7-0.3c-0.2-0.2-0.3-0.4-0.3-0.7
						c0-0.3,0.1-0.5,0.3-0.6c0.2-0.2,0.4-0.3,0.7-0.3c0.2,0,0.3,0,0.4,0.1c0.1,0.1,0.2,0.1,0.3,0.2s0.1,0.2,0.2,0.4
						c0,0.1,0.1,0.3,0.1,0.4c0,0.2,0,0.5-0.1,0.7c-0.1,0.3-0.2,0.5-0.3,0.8s-0.3,0.5-0.5,0.7s-0.4,0.5-0.6,0.7L982.8,90.7z"/>
					<path class="st12" d="M997.4,87.4c0.2,0,0.3,0,0.4,0.1s0.1,0.2,0.1,0.4v0.9h-7.6v-0.5c0-0.1,0-0.2,0.1-0.3
						c0-0.1,0.1-0.2,0.2-0.3l3.7-3.7c0.3-0.3,0.6-0.6,0.8-0.9c0.3-0.3,0.5-0.6,0.6-0.9s0.3-0.6,0.4-0.9c0.1-0.3,0.1-0.6,0.1-0.9
						s-0.1-0.6-0.2-0.9c-0.1-0.3-0.3-0.5-0.4-0.6c-0.2-0.2-0.4-0.3-0.7-0.4s-0.5-0.1-0.8-0.1s-0.6,0-0.8,0.1s-0.5,0.2-0.7,0.4
						c-0.2,0.2-0.3,0.3-0.5,0.5s-0.2,0.4-0.3,0.7c-0.1,0.2-0.2,0.3-0.3,0.4s-0.3,0.1-0.5,0.1l-0.7-0.1c0.1-0.5,0.2-1,0.4-1.4
						s0.5-0.7,0.8-1s0.7-0.5,1.1-0.6c0.4-0.1,0.9-0.2,1.4-0.2s0.9,0.1,1.4,0.2s0.8,0.4,1.1,0.6c0.3,0.3,0.6,0.6,0.7,1
						s0.3,0.8,0.3,1.3c0,0.4-0.1,0.8-0.2,1.2s-0.3,0.7-0.5,1s-0.5,0.7-0.8,1s-0.6,0.6-0.9,1l-3,3.1c0.2-0.1,0.4-0.1,0.6-0.1
						c0.2,0,0.4-0.1,0.6-0.1L997.4,87.4L997.4,87.4z"/>
					<path class="st12" d="M1006.9,87.7v1.1h-6.1v-1.1h2.5v-7.8c0-0.2,0-0.5,0-0.7l-2,1.8c-0.1,0.1-0.1,0.1-0.2,0.1
						c-0.1,0-0.1,0-0.2,0s-0.1,0-0.2-0.1c-0.1,0-0.1-0.1-0.1-0.1l-0.4-0.6l3.4-3h1.2v10.4C1004.8,87.7,1006.9,87.7,1006.9,87.7z"/>
					<path class="st12" d="M1010.6,81.8c0.3-0.4,0.7-0.7,1.2-0.9s0.9-0.3,1.5-0.3c0.4,0,0.8,0.1,1.2,0.2s0.6,0.4,0.8,0.6
						c0.2,0.3,0.4,0.6,0.5,1s0.2,0.8,0.2,1.3v5.2h-1.4v-5.2c0-0.6-0.1-1.1-0.4-1.4c-0.3-0.3-0.7-0.5-1.3-0.5c-0.4,0-0.8,0.1-1.2,0.3
						c-0.4,0.2-0.7,0.5-1,0.8v6h-1.4V77h1.4L1010.6,81.8L1010.6,81.8z"/>
				</g>
				<path class="st12" d="M889.2,55.3c1.1,0,2.2,0,3.2,0c1.3,0,2,0.7,2,2c0,1.2,0.1,2.5,0.4,3.7c0.2,1,0.4,2,0.7,2.9
					s0.1,1.6-0.6,2.2c-1.3,1.3-2.6,2.5-3.9,3.7c-0.2,0.1-0.2,0.3-0.1,0.5c0.9,1.6,1.9,3.1,3,4.6c1.5,1.8,3.2,3.5,5.1,4.9
					c1.2,0.9,2.6,1.8,3.9,2.5c0.2,0.1,0.3,0.1,0.5-0.1c1.3-1.3,2.5-2.5,3.8-3.8c0.3-0.3,0.7-0.6,1.1-0.7c0.2-0.1,0.5-0.1,0.7,0
					c1.8,0.7,3.6,1.1,5.5,1.2c0.6,0,1.3,0,1.9,0.1c0.9,0.1,1.6,0.8,1.6,1.7c0,2.3,0,4.5,0,6.8c0,1-0.8,1.7-1.7,1.7
					c-2.5,0-5-0.2-7.4-0.8c-3-0.7-5.9-1.8-8.6-3.4c-1.6-0.9-3.2-2-4.7-3.2c-1.4-1.2-2.7-2.5-3.9-3.9c-1.5-1.8-2.8-3.7-3.9-5.8
					c-1.1-2-1.9-4.2-2.6-6.4c-0.5-1.8-0.8-3.5-1-5.3c-0.1-1.1-0.2-2.3-0.1-3.4c0-1,0.8-1.7,1.7-1.7
					C886.9,55.3,888.1,55.3,889.2,55.3L889.2,55.3z"/>
			</g>
		</g>
	</g>
</g>
<image style="overflow:visible;" width="200" height="55" xlink:href="http://localhost:4200/stars.gif"  transform="matrix(0.8727 0 0 0.8727 449 46)">
</image>
</svg>
