<?xml version="1.0" encoding="utf-8"?>
<!-- Generator: Adobe Illustrator 21.0.2, SVG Export Plug-In . SVG Version: 6.00 Build 0)  -->
<svg version="1.1" id="Layer_1" xmlns="http://www.w3.org/2000/svg" xmlns:xlink="http://www.w3.org/1999/xlink" x="0px" y="0px"
	 viewBox="0 0 341 185" style="enable-background:new 0 0 341 185;" xml:space="preserve">
<style type="text/css">
	.st0{fill:#FFFFFF;}
	.st1{fill:none;}
</style>
<g id="beta_logo">
	<path class="st0" d="M-0.2,31.3c5.8,0,11.7,0.1,17.5,0c2.1,0,2.9,0.8,2.8,2.8c-0.1,2.2,0,4.4,0,6.6c1,0.2,1.2-0.4,1.5-0.7
		c8.5-9,19.1-11.7,30.9-9.8c19.6,3.1,32.2,16,34.7,35.8c1.8,14.2-1.2,27.5-11.8,37.9c-9,8.9-20.3,11.7-32.6,10.8
		c-5.7-0.4-11.2-1.8-16.2-4.7c-2.3-1.4-4.3-3.1-6.2-5.1c-0.6,0.9-0.3,1.8-0.3,2.6c0,12.1,0,24.1,0,36.2c0,3-0.1,3.1-3.1,3.1
		c-5.8,0-11.5,0-17.3-0.1V31.3z M67.1,72.1c0-13.3-9.4-22.7-22.6-22.6C31.1,49.6,22,58.8,22,72.2c0,13.1,9.6,22.6,22.7,22.6
		C57.5,94.8,67.1,85.1,67.1,72.1"/>
	<path class="st0" d="M122.4,0c0,37.2,0,74.4,0,111.5c0,3.3,0,3.3-3.4,3.3c-4.9,0-9.8,0-14.7,0.1c-2,0.1-2.8-0.7-2.6-2.7
		c0.1-1.7,0-3.4,0-5.1c0-35.7,0-71.4,0-107.2H122.4z"/>
	<path class="st0" d="M250.3,130.4c2.6,0,5.2,0,7.8,0c1.5,0,2.4,0.5,2.5,2c0.4,7.4,7.7,13.9,16.8,15.1c6.1,0.8,11.8,0.1,17-3.3
		c10.1-6.6,9.3-21.2-1.4-26.7c-3.5-1.8-7.2-2.6-11.1-2.6c-5.7-0.1-11.3-0.7-16.8-2.5c-10.8-3.7-18.5-10.7-22.3-21.4
		c-4.9-14-4.5-27.9,3.7-40.7c7.2-11.3,18.2-16.6,31.3-17.6c7.1-0.5,14.1,0,20.6,3.6c1.2,0.7,1.7-0.1,2.3-0.8
		c1.8-2.3,3.7-4.6,5.4-6.9c1-1.3,1.8-1.6,3.2-0.5c3.9,3.1,7.9,6.1,11.9,9.1c1.2,0.9,1.3,1.7,0.3,2.8c-2.2,2.7-4.2,5.5-6.4,8.1
		c-1,1.2-1,2.1,0,3.4c9,12.8,9.2,26.2,2.9,40.1c-2.2,4.9-5.8,8.6-10.5,11.3c-1.6,0.9-1.5,1.3,0,2.2c11.9,6.7,15.6,17.1,14.2,30.2
		c-2,18.2-15.8,29-32.8,31.2c-11.6,1.5-22.7,0.2-32.8-6.1c-10.3-6.5-15.5-16-16.2-28.1c-0.1-1.5,0.7-1.9,2-1.8
		C244.8,130.4,247.6,130.4,250.3,130.4 M281.1,95.8c8.7,0,16-4.7,19-12.4c2.6-6.7,2.6-13.4-0.3-19.9c-3.3-7.5-9.2-11.7-17.3-12.1
		c-8.1-0.5-14.7,2.8-18.9,10c-3,5.1-3.6,10.6-2.8,16.5C262.2,88.5,270.3,95.8,281.1,95.8"/>
	<path class="st0" d="M181.9,33.6c12,0,24,0,35.9,0c6.7,0,10.6,3.9,10.6,10.6c0,8.4,0.1,16.7,0,25.1c-0.2,23-18.2,43.1-41.1,45.8
		c-25.9,3.1-49.4-15.2-52.4-41c-0.5-4.3-0.2-8.6-0.2-12.9c0-6,0-12,0-18c0-5.8,3.8-9.6,9.7-9.6C157,33.6,169.5,33.6,181.9,33.6
		 M181.4,52.5c-8.4,0-16.9,0.1-25.3,0c-2.1,0-2.8,0.7-2.8,2.8c0.1,4.2,0,8.4,0,12.7c0.1,8,2.7,15,8.6,20.7c8,7.6,17.4,10.1,27.8,6.9
		c10.5-3.2,17.1-10.6,19.3-21.4c1.2-6,0.3-12.2,0.5-18.4c0.1-3-0.1-3.1-3.1-3.1C198.1,52.5,189.8,52.5,181.4,52.5"/>
	<path class="st0" d="M174.5,15.2c0,3.4,0,6.7,0,10.1c0,1.7-0.7,2.3-2.3,2.3c-5-0.1-10,0-14.9,0c-1.6,0-2.2-0.7-2.2-2.2
		c0-6.8,0-13.6,0-20.5c0-1.6,0.6-2.2,2.2-2.2c5.1,0,10.1,0,15.2,0c1.5,0,2.1,0.7,2,2.1C174.5,8.3,174.5,11.8,174.5,15.2"/>
	<path class="st0" d="M208.2,15.2c0,3.4,0,6.7,0,10.1c0,1.7-0.7,2.3-2.3,2.3c-5-0.1-10,0-14.9,0c-1.6,0-2.2-0.7-2.2-2.2
		c0-6.8,0-13.6,0-20.5c0-1.6,0.6-2.2,2.2-2.2c5.1,0,10.1,0,15.2,0c1.5,0,2.1,0.7,2,2.1C208.1,8.3,208.2,11.8,208.2,15.2"/>
	<g>
		<rect y="125.1" class="st1" width="266" height="59.9"/>
		<path class="st0" d="M31.8,181.4v-4.2h-4.2v-52h38.5v4.2h4.2v0.3h0.3v4.2h4.2v20.5h-4.2v2h4.2v20.5h-4.5v4.5H31.8z M62.5,173.6
			v-4.5H67v-13.5h-4.5v-9H67v-13.5h-4.5v-4.5H31v45H62.5z M40,146.6v-9h18v9H40z M40,164.6v-9h18v9H40z"/>
		<path class="st0" d="M81.8,181.4v-4.2h-4.2v-52h43v4.2h4.2v16h-13.2v2h4.2v13.8h4.8v4.2h4.2v16H81.8z M117.1,173.6v-9h-27v-9h18
			v-9h-18v-9h27v-9h-36v45H117.1z"/>
		<path class="st0" d="M145.4,181.4v-4.2h-4.2v-31.8h-9.3v-4.2h-4.2v-16h43v4.2h4.2v16h-13.5v36H145.4z M153.7,173.6v-36h13.5v-9
			h-36v9h13.5v36H153.7z"/>
		<path class="st0" d="M181.9,181.4v-4.2h-4.2v-20.5h4.5v-9h4.5v-9h4.5v-9h4.5v-4.5h20.5v4.2h4.2v0.3h0.3v4.2h4.5v9h4.5v9h4.5v9h4.2
			v20.5h-16v-4.2h-4.2v-4.8H198v9H181.9z M190.2,173.6v-9h31.5v9h9v-13.5h-4.5v-9h-4.5v-9h-4.5v-9h-4.5v-4.5h-13.5v4.5h-4.5v9h-4.5
			v9h-4.5v9h-4.5v13.5H190.2z M199.2,155.6v-9h4.5v-9h4.5v9h4.5v9H199.2z"/>
	</g>
</g>
<g>
</g>
<g>
</g>
<g>
</g>
<g>
</g>
<g>
</g>
<g>
</g>
<g>
</g>
<g>
</g>
<g>
</g>
<g>
</g>
<g>
</g>
<g>
</g>
<g>
</g>
<g>
</g>
<g>
</g>
</svg>
