<?xml version="1.0" encoding="utf-8"?>
<!-- Generator: Adobe Illustrator 21.0.2, SVG Export Plug-In . SVG Version: 6.00 Build 0)  -->
<svg version="1.1" id="Layer_1" xmlns="http://www.w3.org/2000/svg" xmlns:xlink="http://www.w3.org/1999/xlink" x="0px" y="0px"
	 viewBox="0 0 553 185" style="enable-background:new 0 0 553 185;" xml:space="preserve">
<style type="text/css">
	.st0{fill:#FFFFFF;}
	.st1{fill:none;}
	.st2{font-family:'Golden-Age';}
	.st3{font-size:90px;}
</style>
<g id="beta_logo">
	<path class="st0" d="M5.5,38.5c5.8,0,11.7,0.1,17.5,0c2.1,0,2.9,0.8,2.8,2.8c-0.1,2.2,0,4.4,0,6.6c1,0.2,1.2-0.4,1.5-0.7
		c8.5-9,19.1-11.7,30.9-9.8c19.6,3.1,32.2,16,34.7,35.8c1.8,14.2-1.2,27.5-11.8,37.9c-9,8.9-20.3,11.7-32.6,10.8
		c-5.7-0.4-11.2-1.8-16.2-4.7c-2.3-1.4-4.3-3.1-6.2-5.1c-0.6,0.9-0.3,1.8-0.3,2.6c0,12.1,0,24.1,0,36.2c0,3-0.1,3.1-3.1,3.1
		c-5.8,0-11.5,0-17.3-0.1V38.5H5.5z M72.8,79.3c0-13.3-9.4-22.7-22.6-22.6C36.8,56.8,27.7,66,27.7,79.4c0,13.1,9.6,22.6,22.7,22.6
		C63.2,102,72.8,92.3,72.8,79.3"/>
	<path class="st0" d="M128.1,7.2c0,37.2,0,74.4,0,111.5c0,3.3,0,3.3-3.4,3.3c-4.9,0-9.8,0-14.7,0.1c-2,0.1-2.8-0.7-2.6-2.7
		c0.1-1.7,0-3.4,0-5.1c0-35.7,0-71.4,0-107.2L128.1,7.2L128.1,7.2z"/>
	<path class="st0" d="M256,137.6c2.6,0,5.2,0,7.8,0c1.5,0,2.4,0.5,2.5,2c0.4,7.4,7.7,13.9,16.8,15.1c6.1,0.8,11.8,0.1,17-3.3
		c10.1-6.6,9.3-21.2-1.4-26.7c-3.5-1.8-7.2-2.6-11.1-2.6c-5.7-0.1-11.3-0.7-16.8-2.5c-10.8-3.7-18.5-10.7-22.3-21.4
		c-4.9-14-4.5-27.9,3.7-40.7c7.2-11.3,18.2-16.6,31.3-17.6c7.1-0.5,14.1,0,20.6,3.6c1.2,0.7,1.7-0.1,2.3-0.8
		c1.8-2.3,3.7-4.6,5.4-6.9c1-1.3,1.8-1.6,3.2-0.5c3.9,3.1,7.9,6.1,11.9,9.1c1.2,0.9,1.3,1.7,0.3,2.8c-2.2,2.7-4.2,5.5-6.4,8.1
		c-1,1.2-1,2.1,0,3.4c9,12.8,9.2,26.2,2.9,40.1c-2.2,4.9-5.8,8.6-10.5,11.3c-1.6,0.9-1.5,1.3,0,2.2c11.9,6.7,15.6,17.1,14.2,30.2
		c-2,18.2-15.8,29-32.8,31.2c-11.6,1.5-22.7,0.2-32.8-6.1c-10.3-6.5-15.5-16-16.2-28.1c-0.1-1.5,0.7-1.9,2-1.8
		C250.5,137.6,253.3,137.6,256,137.6 M286.8,103c8.7,0,16-4.7,19-12.4c2.6-6.7,2.6-13.4-0.3-19.9c-3.3-7.5-9.2-11.7-17.3-12.1
		c-8.1-0.5-14.7,2.8-18.9,10c-3,5.1-3.6,10.6-2.8,16.5C267.9,95.7,276,103,286.8,103"/>
	<path class="st0" d="M187.6,40.8c12,0,24,0,35.9,0c6.7,0,10.6,3.9,10.6,10.6c0,8.4,0.1,16.7,0,25.1c-0.2,23-18.2,43.1-41.1,45.8
		c-25.9,3.1-49.4-15.2-52.4-41c-0.5-4.3-0.2-8.6-0.2-12.9c0-6,0-12,0-18c0-5.8,3.8-9.6,9.7-9.6C162.7,40.8,175.2,40.8,187.6,40.8
		 M187.1,59.7c-8.4,0-16.9,0.1-25.3,0c-2.1,0-2.8,0.7-2.8,2.8c0.1,4.2,0,8.4,0,12.7c0.1,8,2.7,15,8.6,20.7c8,7.6,17.4,10.1,27.8,6.9
		c10.5-3.2,17.1-10.6,19.3-21.4c1.2-6,0.3-12.2,0.5-18.4c0.1-3-0.1-3.1-3.1-3.1C203.8,59.7,195.5,59.7,187.1,59.7"/>
	<path class="st0" d="M180.2,22.4c0,3.4,0,6.7,0,10.1c0,1.7-0.7,2.3-2.3,2.3c-5-0.1-10,0-14.9,0c-1.6,0-2.2-0.7-2.2-2.2
		c0-6.8,0-13.6,0-20.5c0-1.6,0.6-2.2,2.2-2.2c5.1,0,10.1,0,15.2,0c1.5,0,2.1,0.7,2,2.1C180.2,15.5,180.2,19,180.2,22.4"/>
	<path class="st0" d="M213.9,22.4c0,3.4,0,6.7,0,10.1c0,1.7-0.7,2.3-2.3,2.3c-5-0.1-10,0-14.9,0c-1.6,0-2.2-0.7-2.2-2.2
		c0-6.8,0-13.6,0-20.5c0-1.6,0.6-2.2,2.2-2.2c5.1,0,10.1,0,15.2,0c1.5,0,2.1,0.7,2,2.1C213.8,15.5,213.9,19,213.9,22.4"/>
</g>
<rect x="339.5" y="118.5" class="st1" width="123.6" height="73"/>
<text transform="matrix(1 0 0 1 339.5381 174.7884)" class="st0 st2 st3">2.0</text>
</svg>
